<?xml version="1.0" standalone="no"?>
<!DOCTYPE svg PUBLIC "-//W3C//DTD SVG 1.1//EN" "http://www.w3.org/Graphics/SVG/1.1/DTD/svg11.dtd">
<svg xmlns="http://www.w3.org/2000/svg">
<metadata>Generated by Fontastic.me</metadata>
<defs>
<font id="untitled-font-1" horiz-adv-x="512">
<font-face font-family="untitled-font-1" units-per-em="512" ascent="480" descent="-32"/>
<missing-glyph horiz-adv-x="512" />

<glyph glyph-name="addbookmark-f" unicode="&#97;" d="M310 487c-57 0-107-33-131-81l-98 0c-16 0-30-13-30-29l0-330c0-34 42-52 67-28l78 78c9 8 23 8 31 0l76-76c25-25 67-8 67 27l0 158c51 23 87 75 87 134 0 81-66 147-147 147z m0-251c-58 0-105 46-105 104 0 58 47 105 105 105 58 0 104-47 104-105 0-58-46-104-104-104z m57 120l-39 0 0 39c0 10-8 18-18 18-10 0-18-8-18-18l0-39-39 0c-10 0-18-8-18-18 0-10 8-18 18-18l39 0 0-39c0-10 8-18 18-18 10 0 18 8 18 18l0 39 39 0c10 0 18 8 18 18 0 10-8 18-18 18z"/>
<glyph glyph-name="analytics-f" unicode="&#98;" d="M390 323c0 103-84 187-187 187-103 0-187-84-187-187 0-103 84-187 187-187 103 0 187 84 187 187z m-187-137c-75 0-137 61-137 137 0 75 62 137 137 137 75 0 137-62 137-137 0-75-62-137-137-137z m111 156c-1 0-3 1-4 1-6 0-11-1-15-3l-45 41c1 3 2 7 2 10 0 21-17 38-38 38-21 0-38-17-38-38 0-4 0-7 1-11l-37-40c-3 2-8 3-12 3-21 0-38-17-38-38 0-21 17-38 38-38 21 0 38 17 38 38 0 4-1 9-2 13l35 38c4-2 9-3 15-3 5 0 10 1 15 3l44-41c-1-3-1-7-1-10 0-17 11-32 26-37 20 22 17 65 16 74z m96 50l22 23c4-1 8-2 12-2 21 0 38 17 38 38 0 21-17 38-38 38-21 0-38-17-38-38 0-4 1-9 3-13l-13-15c0 0 9-13 14-31z m-46-208l-33-33c-6-6-6-15 0-21l108-108c6-5 15-5 21 0l33 33c6 6 6 16 0 22l-107 107c-6 6-16 6-22 0z"/>
<glyph glyph-name="anchor-f" unicode="&#99;" d="M468 223c0 5-6 9-11 7l-63-27c-6-3-7-11-1-15l14-8 0 0 0 0c-1-5-31-95-126-118l0 208 38 0c5 0 9 4 9 9l0 10c0 15-12 26-26 26l-21 0 0 49c25 11 42 35 42 63 0 38-31 68-68 68-38 0-69-30-69-68 0-28 18-52 42-63l0-49-20 0c-15 0-27-11-27-26l0-10c0-5 4-9 9-9l38 0 1-208c-96 23-125 114-127 118l0 0 14 8c6 4 5 12-1 15l-63 27c-5 2-10-2-11-7l-8-68c-1-6 6-11 12-8l12 7c13-32 57-122 172-142 0 0 25-4 51 0 116 20 160 110 173 142l11-7c6-3 13 2 13 8l-9 68z m-213 173c-18 0-32 14-32 31 0 17 14 31 32 31 17 0 31-14 31-31 0-17-14-31-31-31z"/>
<glyph glyph-name="applicationcontrol-f" unicode="&#100;" d="M239 166c20-7 42 4 48 25l0 0c7 20-4 42-24 48-21 7-42-4-49-24-6-21 5-42 25-49z m-219-65c0-10 8-18 18-18l425 0c10 0 18 8 18 18l0 221-461 0 0-221z m142 110c0 2 1 4 3 4l10 2 1 0c1 6 3 13 6 19l-7 7c-1 2-2 4-1 6 0 0 2 3 5 7 2 3 4 5 4 5 2 2 4 2 6 1l9-4c5 5 11 9 17 12l-2 10c0 2 1 4 3 5 0 0 4 2 8 3 3 1 7 2 7 2 2 0 4 0 5-2l5-9c3 0 7 0 10 0 4 0 7 0 10 0l5 9c1 2 3 3 5 2 0 0 3 0 7-2 4-1 8-3 8-3 2-1 3-3 3-5l-2-9c6-4 12-8 16-12l9 4c2 1 4 0 5-1 0 0 4-3 6-7 2-3 4-6 4-6 1-2 1-4-1-6l-6-7c3-6 5-13 6-20l10-1c2-1 3-2 4-4 0 0 0-5 0-9 0-4 0-7 0-7-1-2-2-4-4-4l-10-2c-1-7-3-13-6-19l7-8c2-1 2-3 1-5 0 0-2-3-4-7-3-3-6-6-6-6-1-1-3-2-5-1l-9 5c-5-5-11-10-17-13l1-10c0-2-1-4-2-5 0 0-4-1-8-2-2-1-5-2-7-2-2-1-4 0-5 2l-5 9c-3-1-7-1-10-1-4 0-7 0-11 1l-4-9c-1-2-3-3-5-2 0 0-5 1-8 2-4 1-7 3-7 3-2 1-3 2-3 4l2 10c-6 4-12 8-17 12l0 0-9-5c-2-1-4 0-6 1 0 0-2 3-5 6-2 4-4 7-4 7-1 2-1 4 1 6l7 7 0 0c-3 7-5 13-6 20l-1 0-10 2c-2 0-3 2-3 4 0 0-1 4-1 8 0 4 1 8 1 8z m301 205l-425 0c-10 0-18-8-18-18l0-52 461 0 0 52c0 10-8 18-17 18z m-399-47c-9 0-16 7-16 15 0 9 7 15 16 15 8 0 15-6 15-15 0-8-7-15-15-15z m41 0c-8 0-15 7-15 15 0 9 7 15 15 15 9 0 15-6 15-15 0-8-6-15-15-15z m42 0c-9 0-15 7-15 15 0 9 6 15 15 15 8 0 15-6 15-15 0-8-7-15-15-15z"/>
<glyph glyph-name="approval-f" unicode="&#101;" d="M396 276c8 0 38-1 47 2 30 10 18 62-17 62l-144 0c19 37 69 155 1 158-19 3-37-7-44-25-12-71-55-101-110-145-68-36-96-125-71-198 14-39 45-69 82-85 48-20 99-27 151-27 1 0 7 0 16 0l8 0c16-1 23 0 41-1 18 0 21 0 35 1 4 1 11 2 16 6 1 1 3 4 4 5 1 1 2 5 3 7 5 9 4 21-2 30-9 15-28 13-28 13-13 0-13 20 0 20 12 0 6 0 18 0 48 1 40 73 2 68l-13 0c-5 0-10 3-10 8-2 7 3 12 10 12l15 0c21-1 40 13 40 34-1 17-12 35-30 34-7 0-11-1-22 0-4 0-8 5-8 11 0 5 5 10 10 10z"/>
<glyph glyph-name="apps-f" unicode="&#102;" d="M461 151l-32 0c-7 0-13 5-13 12l0 35c0 0 0 1 0 2-2 14-14 24-28 23-14-2-24-13-23-27l0-33c0-7-6-12-13-12l-34 0c-1 0-2 0-3 0-14-2-24-15-23-29 2-13 13-23 27-23l33 0c7 0 12-6 12-13l0-32c0-14 10-25 24-27 0 0 1 0 2 0 14 0 26 11 26 25l0 34c0 7 6 13 13 13l34 0c1 0 1 0 2 0 14 2 25 14 23 29-2 13-13 23-27 23z m-6 331l-129 0c-21 0-37-17-37-37l0-129c0-21 16-37 37-37l129 0c20 0 37 16 37 37l0 129c0 20-17 37-37 37z m-258-2l-129 0c-20 0-37-16-37-36l0-130c0-20 17-37 37-37l129 0c21 0 37 17 37 37l0 130c0 20-16 36-37 36z m-1-255l-130 0c-20 0-36-16-36-36l0-130c0-20 16-36 36-36l130 0c20 0 36 16 36 36l0 130c0 20-16 36-36 36z"/>
<glyph glyph-name="arrowdown-f" unicode="&#103;" d="M414 258l-17 14c-3 3-7 2-10-2l-96-118 0 344c0 9-8 16-17 16l-45 0c-9 0-16-7-16-16l0-344-97 118c-3 4-6 5-10 2l-17-14c-2-2-3-3-5-4-16-16-16-42-1-58 0 0 115-142 123-150 13-16 26-20 46-20 21 0 33 5 46 20l122 150c1 1 3 3 4 4 13 19 9 44-10 58z"/>
<glyph glyph-name="arrowleft-f" unicode="&#104;" d="M486 284l-344 0 119 97c3 3 4 6 1 10l-14 17c-1 2-3 3-4 5-16 16-42 16-58 1 0 0-141-115-150-123-15-13-20-26-19-46 0-21 5-34 19-46l150-122c2-2 3-3 5-4 18-13 44-9 57 9l14 18c3 3 2 6-1 10l-119 96 344 0c9 0 16 8 16 17l0 45c0 9-7 16-16 16z"/>
<glyph glyph-name="arrowright-f" unicode="&#105;" d="M468 312l-149 122c-2 2-3 3-5 4-18 13-44 9-57-9l-15-18c-3-3-2-6 2-10l118-96-343 0c-9 0-16-8-16-17l0-45c0-9 7-16 16-16l343 0-118-97c-4-3-5-6-2-10l15-17c1-2 2-3 4-5 16-16 41-16 58-1 0 0 141 115 149 123 16 14 21 26 20 46 0 21-5 34-20 46z"/>
<glyph glyph-name="arrowup-f" unicode="&#106;" d="M421 316c0 0-115 141-123 150-14 16-26 20-46 20-21-1-34-5-46-20l-122-150c-2-1-3-3-4-5-13-18-9-44 10-57l17-14c3-3 6-2 10 1l96 119 0-344c0-9 8-16 17-16l45 0c9 0 16 7 16 16l0 344 97-119c3-3 6-4 10-1l17 14c2 1 3 3 5 4 16 16 16 42 1 58z"/>
<glyph glyph-name="auditorium-f" unicode="&#107;" d="M260 301c-12-4-40-19-56-26-11-5-19 6-24 14-14 19-39 65-83 53-42-11-55-38-55-94 1-36-8-81 26-123 6-8 13-18 20-26 2-2 3-3 4-5 15-16 33-30 52-42 1 6 1 11 1 14 1 41 6 146 7 154 1 13 10 14 19 8 9-5 25-14 41-6 24 11 47 25 68 41 20 16 5 48-20 38z m219-182c-37 14-91 0-94-42-1-10-1-20 0-30 0-1-1-9 5-9 2 1 3 1 5 2 33 17 63 41 86 71 1 0 1 0 1 1 1 3 0 6-3 7z m-250-42c0-16 0-32 1-47 1-5 4-10 8-12 2-1 4-2 6-2 3-1 7-1 11-2l1 0c3 0 7 0 10 0l14 0c5 0 9 0 14 0l3 0c4 0 9 1 14 1l1 0c4 1 8 1 13 2l2 0c4 1 9 2 13 3l1 0 5 2c1 0 1 0 1 0 6 2 10 7 11 14 0 9 1 19 1 30 3 75-124 77-130 11z m185 116c-2-20 12-37 32-38 20-2 37 12 39 32 1 20-13 37-33 39 0 0 0 0 0 0-20 1-37-13-38-33z m-301 183l0 0c0 0 0 0 0 0 23 0 41 19 41 41 0 23-18 42-41 42-23 0-41-19-41-42 0-22 18-41 41-41z m183-150c-19 1-37-13-38-33-2-19 13-37 32-38 0 0 0 0 0 0 20-2 37 12 39 32 2 20-13 37-33 39z m-181 258c34-1 61-27 64-60 0-2 0-4 0-7 0-2 0-4 0-7 0 0 0-1 0-1 0-2-1-4-1-6 0 0-1-1-1-2 0-1 0-3-1-4l0-2c-1-2-2-3-2-5-1 0-1-1-1-1-1-2-1-3-2-5l-1-1c-1-1-2-3-3-4l-1-1c-1-2-2-3-3-5l-1 0c-1-2-3-3-4-5-1 0-1 0-1-1-4-4-3-11 2-14 14-12 27-27 37-43l0 0c3-4 9-6 13-4l7 4c14 6 27 13 35 16 21 8 45 0 57-20 3-5 5-11 6-17 1-5 5-8 10-8l94 0c17 0 30 13 30 31l0 152c0 7-2 14-7 19-5 7-14 12-23 11l-293 0c-5 0-12-1-12-7 0-1 1-3 2-3z"/>
<glyph glyph-name="bakery-f" unicode="&#108;" d="M437 132c-1 5-1 10 2 14 39 45 54 99 54 134 0 83-73 154-147 154-45 0-69-16-95-38-1 0-2 0-3-1-1 0-1 0-1 0 0 0 0 0 0 0-1 1-2 1-3 1-27 22-51 38-96 38-74 0-147-71-147-154 0-35 15-89 55-134 2-4 2-9 1-14-4-6-7-12-7-12-6-13 0-28 12-34 7-3 14-3 20 0 7 2 13 6 19 10 4 2 8 3 13 2 34-20 77-33 130-34 1 0 2 0 2 0 1 0 1 0 1 0 0 0 0 0 0 0 0 0 0 0 0 0 0 0 1 0 1 0 1 0 1 0 2 0 53 1 96 14 130 34 5 1 9 0 13-2 6-4 13-8 19-10 7-3 14-3 20 0 13 6 18 21 12 34 0 0-3 6-7 12z m-321 66c-25 23-38 52-38 94 0 44 30 75 71 75 31 0 42-14 46-21 0-3 0-6 0-9-10-28-8-59 6-85 2-4 1-9-2-12-25-15-47-29-67-43-5-4-12-4-16 1z m184-43c0-1-1-1-2-2-16-5-33-7-51-7l0 0c-18 0-35 2-51 7-1 1-2 1-2 2-3 3-3 8 1 11 17 11 41 26 49 30l0-1c2 1 3 1 3 1 1 0 2 0 3-1l0 1c8-4 32-19 50-30 3-3 3-8 1-11z m78 43c-4-5-11-5-16-1-20 14-42 28-67 43-3 3-4 8-2 12 14 26 16 57 7 85-1 3-1 6 0 9 3 7 15 21 45 21 41 0 71-31 71-75 0-42-13-72-38-94z"/>
<glyph glyph-name="battery-f" unicode="&#109;" d="M367 439l-34 1c-9 0-16 6-16 15l0 10c0 9-7 16-15 16l-74 0c-8 0-15-7-15-16l0-10c0-8-7-15-16-15-11 0-23 0-34-1-14-2-25-13-27-26 0-114 0-228 0-342l0-11c0-2 0-5-1-7l0-2c0-15 12-27 27-27l207 0c13 2 25 15 25 31l0 357c-2 14-13 25-27 27z m-52-106l-52-99c-2-2-2-6 1-8 1-1 2-1 4-1l35 0c3 0 6-2 6-5 1-1 0-3-1-4l-64-123c-2-5-4-4-3 1l10 94c1 4-2 9-7 10-1 0-1 0-2 0l-24 0c-5 0-8 3-9 7 0 1 0 2 1 3l26 124c2 6 7 10 13 11l61 0c3 0 6-2 7-5 0-2-1-4-2-5z"/>
<glyph glyph-name="beverages-f" unicode="&#110;" d="M412 345c5 34 10 97 10 103l1 0c1 0 2 1 2 2l1 4c0 3-1 6-4 6l-38 5c-3 0-5-1-6-4l0-4c-1-2 0-3 2-3l1 0c-1-6-13-68-18-102-2-15-34-39-39-81-4-28-22-154-23-163 0 0 0-1 0-1-1-14 9-26 23-27l32-5 19-2c1 0 2-1 2-1 14-1 26 8 28 22 2 14 17 120 23 162 5 43-18 74-16 89z m-167-48c-5 53-59 87-61 104-4 35-7 62-8 68-1 16-10 21-31 19-20-2-27-9-26-25 1-6 4-33 8-68 1-17-44-62-39-115 1-4 14-123 21-188 0-4 2-18 2-22l3-23c0 0 0-32 27-30 2 1 55 5 55 5l53 6c0 0 25 8 21 39-1 12-24 219-25 230z"/>
<glyph glyph-name="boardmember-f" unicode="&#111;" d="M101 193l-1 1c-4 9-11 16-20 22-1 0-2 0-3 0-1 0-2 0-2 0-1-1-1-1-2-1-1-1-2-2-3-3-3-2-7-4-11-4-4 0-9 2-12 4-1 1-2 2-3 3 0 0-1 0-1 1-1 0-2 0-3 0-1 0-2 0-3 0-8-6-15-13-20-22l0-1c-4-9-7-18-7-28l0-25c0-6 2-11 5-16 4-4 8-8 13-11l0 0c2-1 4-2 4-2 2-2 4-3 5-3 14-8 30-8 44 0 2 0 3 1 5 3 0 0 3 1 4 2l0 0c5 3 9 7 13 11 3 5 5 10 5 16 0 10 0 18-1 25 0 10-2 19-7 28z m-41 38c10 0 20 10 27 32 12 40-8 61-29 61-15 0-30-12-31-38 1-31 16-55 33-55z m221 204c26 70-72 84-73 23 1-51 51-81 73-23z m153-204c10 0 21 10 28 32 12 40-9 61-29 61-16 0-31-12-31-38 0-31 16-55 32-55z m49-66c-1 10-3 20-7 29l-1 0c-4 9-11 17-20 22-1 0-2 0-3 0-1 0-1 0-2 0-1 0-1-1-2-1-1-1-2-2-2-2-4-3-8-4-12-4-4 0-9 1-12 4-1 0-2 1-3 2 0 0-1 1-1 1-1 0-2 0-3 0-1 0-2 0-3 0-8-5-15-13-20-22l0-1c-4-9-7-18-7-28l0-25c-1-6 1-11 5-16 3-4 8-8 12-11l1 0c1-1 4-2 4-2 1-2 3-3 5-3 13-8 30-8 43 0 2 0 4 1 6 3 0 0 2 1 3 2l1 0c5 3 9 7 13 11 3 5 5 10 5 16 0 10 0 18-1 25z m-304 136c4-3 8-6 12-8 5-3 10-4 15-4l83 0c5 0 10 1 15 4 4 2 8 5 12 8 5 4 8 9 8 15 0 8 0 17-1 25-1 11-4 20-11 29l0 0c-9 10-19 18-32 22-2 1-6 1-8 0-1 0-2-1-2-1l-5-2c-5-3-12-4-18-4-6 0-12 1-18 4-2 0-3 1-4 2-4 2-8 2-11 1-12-4-23-12-31-22l-1 0c-6-8-10-18-11-29 0-8-1-17 0-25 0-6 3-12 8-15z m147-36l-161 0c-19 0-35-16-35-35l0-195c0-19 16-35 35-35l161 0c19 0 35 16 35 35l0 195c0 19-16 35-35 35z"/>
<glyph glyph-name="bookmark-f" unicode="&#112;" d="M420 500l-319 0c-20 0-37-16-37-36l0-405c0-43 52-65 82-35l97 96c11 10 27 10 38 0l94-94c30-31 82-9 82 34l0 404c0 20-17 36-37 36z"/>
<glyph glyph-name="bothsides-f" unicode="&#113;" d="M154 278l-83 72c-5 5-12 7-19 7-6-1-12-4-16-10l-8-10c-2-2-1-4 1-6l66-57 26-23-26-23-67-56c-2-2-2-4-1-6l8-10c4-6 10-9 17-10 7-1 13 2 18 6l84 71c8 7 13 17 14 28-1 11-6 21-14 27z m345-106l-67 56-26 23 26 23 66 57c2 2 3 4 1 6l-8 10c-1 1-2 3-3 4-9 8-23 8-32-1l-83-72c-8-6-14-16-14-27 1-11 6-21 14-28l84-71c5-4 11-7 18-6 7 1 13 4 16 10l9 10c1 2 1 4-1 6z m-274 293l0-415c6-40 71-40 77 0l0 415c-6 41-71 41-77 0z"/>
<glyph glyph-name="brain-f" unicode="&#114;" d="M458 280c-26 17-50 22-71 17-30-7-47-34-47-34-1-1-1-1-1-1-4-5-10-6-15-2-5 5-3 9 0 15 14 21 35 36 58 42 24 6 47 1 73-11 0 0 1 0 1-1 4-1 8 1 10 5 2 6 3 12 5 18 8 57-28 81-39 87-1 1-1 1-2 2-6 2-10 7-10 13-3 63-65 63-85 62-3-1-7 0-10 2-8 7-17 11-27 12-1 0-1 0-1 0-13 0-23-10-22-23l0-445c0-8 6-15 15-15 44 2 61 31 67 45 2 6 7 9 13 10 69 5 63 52 55 76-2 7 2 15 9 18 60 24 55 80 23 108z m-154 151c1 5 6 8 11 7 5-1 9-7 7-12 0 0-5-24 7-37 9-10 24-16 48-12 6 0 11-4 11-10 1-5-4-10-9-11 0 0-10-1-14-2-24 0-41 7-53 21-19 22-8 55-8 56z m97-218c0-1-77-41-73-100 0 0 0-1 0-1-1-5-5-10-11-9-5-1-9 3-10 8-5 73 82 118 86 119 0 0 0 1 1 1 4 2 10 0 12-4 2-5 0-11-5-14z m-176 293c-10-1-19-5-27-12-3-2-7-3-10-3-20 2-82 2-85-61 0-6-4-11-9-13-20-8-62-32-36-107 0 0 0 0 0 0 2-4 6-6 10-4 26 12 49 17 73 11 24-7 44-22 58-42 3-6 5-10 1-15-1-1-1-1-1-1-5-3-12-2-15 4 0 0-17 27-48 34-21 5-45 0-71-17-31-28-36-84 24-108 7-3 11-11 9-19-8-23-14-70 55-75 6-1 11-4 13-10 6-15 23-43 67-45 9 0 15 7 15 15l0 445c0 0 0 1 0 1 0 13-10 22-23 22z m-9-395c0-5-5-9-10-8 0 0-1 0-1 0-5 0-10 4-9 10 3 59-74 99-74 100-5 3-7 9-5 14 0 0 1 1 1 1 3 4 9 5 13 2 3-1 90-46 85-119z m-5 264c-12-14-29-21-53-21-3 0-14 2-14 2-15 4-10 22 2 21 24-4 39 1 48 12 12 13 7 37 7 37-2 5 1 11 7 12 0 0 0 0 0 0 5 1 10-2 12-7 0-2 10-34-9-56z"/>
<glyph glyph-name="breakstop-f" unicode="&#115;" d="M333 249c-3 3-4 7-4 12 0 3 1 7 3 10 30 32 115 122 157 165 1 2 2 4 2 7 1 6-4 11-10 11l-59 0c-6 0-13 0-20-2-10-2-17-10-25-18l-99-102c-1 0-2-1-3-2-8-7-20-6-27 2l-99 102c-8 7-15 17-25 18-7 2-14 2-20 2l-59 0c-2 0-5-1-7-3-4-4-5-11-1-15 41-43 127-133 157-166 2-3 3-6 3-10 0-4-1-8-4-12l-147-153c0-1-3-4-7-8-4-4-6-9-6-15l0 0c0-8 7-14 14-14l62 1c5 0 10 3 14 6 12 13 27 26 44 41l56 57 25 26c1 1 2 2 2 2 9 7 21 6 28-2l29-30c30-30 70-72 70-72 15-14 16-19 41-20l63 0c2 0 5 1 7 3 4 4 5 11 0 16-37 39-124 131-155 163z"/>
<glyph glyph-name="butcher-f" unicode="&#116;" d="M357 300c-11-16-75-53-104-54-105-24-159 72-217 36-4-3-8-6-12-9l-4-4c0 0-27-34 1-78 64-80 321-100 427 25 64 67-35 144-91 84z m91 90c-4-8-4-39-3-48 1-5 16-17 23-15 7 2 36 13 41 20 8 10-55 53-61 43z"/>
<glyph glyph-name="cafe-f" unicode="&#117;" d="M434 70c-57-6-115-10-173-10-56 0-112 3-168 10-17 1-20-22-6-26 0 0 69-24 175-24 117 0 178 24 178 24 16 4 13 28-6 26z m-197 20l20 0c59 0 92 32 110 70 78 0 90 51 90 75 0 20-14 46-49 46l-152 0c1 12 5 24 13 33 7 10 18 16 26 26 16 19 19 49 7 71-4 7-9 14-13 21-11 19-10 44 1 63-27-2-45-31-43-57 1-18 11-34 14-51 2-14 0-29-7-41-5-9-12-17-17-26-5-12-5-26 0-39l-111 0c-11 0-21-5-21-18 0-19 2-37 6-56 11-53 42-117 126-117z m151 162l21 0c9 0 25-14 14-37-8-17-26-27-44-25 5 21 8 42 9 62z"/>
<glyph glyph-name="calendar-f" unicode="&#118;" d="M155 502l-12 0c-14 0-26-11-26-25l0-76c0-14 12-25 26-25l12 0c14 0 26 11 26 25l0 76c0 14-12 25-26 25z m201 0l-12 0c-14 0-26-11-26-25l0-76c0-14 12-25 26-25l12 0c14 0 25 11 25 25l0 76c0 14-11 25-25 25z m83-64l-26 0 0-37c0-32-25-57-57-57l-12 0c-32 0-57 25-57 57l0 37-75 0 0-37c0-32-25-57-57-57l-13 0c-31 0-56 25-56 57l0 37-26 0c-21 0-38-17-38-38l0-351c0-19 16-35 35-35l388 0c18 3 32 19 32 38l0 348c0 21-17 38-38 38z m-26-323c0-21-17-38-38-38l-251 0c-21 0-38 17-38 38l0 159c0 21 17 38 38 38l251 0c21 0 38-17 38-38z m-275 165l25 0c11 0 19-9 19-19l0-26c0-10-8-19-19-19l-25 0c-11 0-19 9-19 19l0 26c0 10 8 19 19 19z m0-108l25 0c11 0 19-8 19-19l0-25c0-10-8-19-19-19l-25 0c-11 0-19 9-19 19l0 25c0 11 8 19 19 19z m99 0l25 0c11 0 19-8 19-19l0-25c0-10-8-19-19-19l-25 0c-10 0-19 9-19 19l0 25c0 11 9 19 19 19z m124 108l-25 0c-10 0-19-9-19-19l0-26c0-10 9-19 19-19l25 0c11 0 19 9 19 19l0 26c0 10-8 19-19 19z m0-108l-25 0c-10 0-19-8-19-19l0-25c0-11 9-19 19-19l25 0c11 0 19 8 19 19l0 25c0 11-8 19-19 19z m-124 108l25 0c11 0 19-9 19-19l0-26c0-10-8-19-19-19l-25 0c-10 0-19 9-19 19l0 26c0 10 9 19 19 19z"/>
<glyph glyph-name="cashmachine-f" unicode="&#119;" d="M277 406l-117 0c0 0 0 0 0 0-15 0-27-12-27-26 0 0 1-293 0-322l0-8c0-8 12-21 22-20l60 0c0 0 0 0 0 0l62 0c2 0 4 2 4 4l0 367c0 3-2 5-4 5z m-79-350c-8-5-17-6-25-2-19 8-23 30-12 44-8 10-9 26 3 38 4 5 11 8 18 8 11 0 21-6 26-15 6-11 4-23-3-31 11-13 8-33-7-42z m148 350l-13 0c-2 0-4-2-4-4l0-368c0-3 2-4 4-4l13 0c15 0 26 11 26 26l0 324c0 14-12 26-26 26z m115 88l-416 0c-19 0-35-16-35-36l0-117c0-16 13-30 29-30l12 0c3 0 6 3 6 6l0 118c0 6 5 12 12 12l368 0c7 0 12-6 12-12l0-118c0-3 3-6 6-6l12 0c16 0 29 14 29 30l0 117c0 20-16 36-35 36z"/>
<glyph glyph-name="cctv-f" unicode="&#120;" d="M492 163l-56 9c-4 1-7-2-8-6l-3-15-70 14c-5 1-8 5-8 10l6 39c14 8 22 23 20 39l72 16c5 1 8 6 7 11l-33 147c-2 5-7 8-12 7l-305-69c-5-1-8-6-7-11l8-36-12-2c-6-1-12-1-18 2l-18 9c-5 2-11 3-17 2l-13-3c0 0 0 0 0 0-5-1-8-6-7-11l25-111c1-5 6-8 11-6l14 3c6 1 11 5 15 9l12 16c3 4 9 7 14 9l12 3 7-31c1-5 6-8 12-7l157 36c3-10 10-17 19-22l-9-59c-1-10 5-19 14-21l98-19-4-19c0-4 2-8 6-9l13-2c1 0 2-1 3-1 0 0 1 0 2 0 4-1 8 1 10 4 19 22 34 43 45 71 1 3-1 4-2 4z"/>
<glyph glyph-name="ceo-f" unicode="&#121;" d="M303 417l0 1c35 93-96 112-98 30 2-69 69-109 98-31z m141-318l0 0 0 68-175 0 0 40c12 1 23 4 34 7 4 1 8 3 11 4 0 0 6 2 8 3l2 0c9 5 18 10 26 16 7 5 11 13 11 21 0 11-1 22-2 33-1 14-6 28-15 39l0 0 0 1c-12 13-26 23-43 29-3 1-7 1-10 0-2-1-3-1-4-2-1-1-3-2-5-3-8-3-16-5-25-5-8 0-16 2-24 5-2 1-4 2-6 3-1 1-2 1-3 2-3 1-7 1-11 0-16-6-31-16-42-29l0-1-1 0c-8-11-13-25-14-39-1-11-1-22-1-33 1-9 5-16 11-21 9-6 17-11 27-16l1 0c2-1 8-3 8-3 3-1 7-3 11-4 10-3 19-5 30-6l0-41-175 0 0-68c-12-4-21-13-25-25-8-22 4-45 25-53 21-7 45 4 52 25 8 22-3 45-25 53l0 40 148 0 0-40c-12-4-21-13-25-25-8-22 3-45 25-53 21-7 45 4 52 25 8 22-4 45-25 53l0 40 147 0 0-40c-16-5-28-20-28-38 0-23 18-41 41-41 23 0 41 18 41 41 0 17-11 32-27 38z"/>
<glyph glyph-name="chatheadset-f" unicode="&#122;" d="M477 281c-8 118-98 210-219 210-120 0-207-90-217-205-1-5-2-9-3-13-3-16-5-45 7-79 1-1 3-4 3-5 6-12 18-20 32-21 23-1 41 20 41 45l0 48c1 20-12 38-32 43 7 33 23 64 46 89 1 2 3 3 5 5 68 65 176 63 242-5 23-25 39-55 46-88-20-5-35-23-34-44l0-48c-1-24 18-44 42-45-24-52-69-91-122-104-1 16-13 27-28 27l-41 0c-16 0-28-12-28-28l0-12c0-16 12-28 28-28l41 0c12 0 22 7 26 18 64 12 117 57 145 118 1 2 4 7 6 12 2 5 4 9 5 14 7 23 10 48 10 73 0 7 0 15-1 23z"/>
<glyph glyph-name="chemistry-f" unicode="&#65;" d="M413 40l-9 27 0 1-100 289c-2 5-3 10-3 16l-1 12 0 91c0 3 1 5 2 8l5 10c1 2 1 3 1 5 0 6-5 11-11 11l-98 0c-1 0-3 0-4-1-6-2-9-9-6-15l5-10c1-3 2-5 2-8l0-100c-1-7-2-13-4-20l-108-312c-1-3-2-6-2-10 0-18 15-33 33-33l229 0c0 0 1 0 1 0l41 0c20 0 34 20 27 39z m-80 5l-170 0c-18 0-28 14-22 31l60 162 94 0 60-162c6-17-4-31-23-31z"/>
<glyph glyph-name="cleaningsupplies-f" unicode="&#66;" d="M280 317l-192 120c-6 4-11 1-11-6l1-51c1-7 5-14 11-19l51-31c0 0 1 0 1 0 6-5 7-15 2-21l-121-196c-3-4-3-9 0-12 4-8 10-16 15-23 1-1 2-2 4-3 5-3 12-1 15 4l127 205c4 8 14 10 21 5l78-47c5-3 10-1 10 6l-1 51c-1 7-5 14-11 19z m181 109l6 2c13 5 22 18 22 32 0 0-2 32-32 32l-153 0c-14 0-25-11-25-25l0-1c0-13 8-25 19-24 11 0 15-10 9-23l-9-20c-7-12-1-24 11-27 14-2 27 6 32 19l4 10c5 13 14 21 21 19 7-3 13-16 14-30 0 0 5-59-2-76-20-49-75-53-75-178l0-110c0-14 11-25 25-25l85 0c0 0 0 0 1 0l38 0c13 0 24 11 24 24l0 16c0 0 0 1 0 1l0 7 0 16c0 0 0 0 0 0l0 140c0 65-10 129-31 191-3 6-2 14 2 20 3 5 8 9 14 10z"/>
<glyph glyph-name="cloakroom-f" unicode="&#67;" d="M476 142l-13 9c-44 27-115 68-171 86-11 4 4 34-39 34-44 0-29-30-40-34-66-22-128-54-184-95-21-16 15-56 43-43 28 13 119 74 181 74 55 0 147-55 171-70 3-2 7-3 9-4 10-4 21-3 30 2 1 1 8 4 10 5 26 21 3 36 3 36z m-261 220c9 1 16 8 15 17 0 13 11 24 24 24 13 0 23-11 23-24 0-19-6-23-16-30-10-6-23-15-23-35 0-9 7-16 16-16 9 0 16 7 16 16 0 2 0 3 8 8 12 8 32 21 32 57 0 31-25 56-56 56-31 0-56-25-56-56 0 0 0-1 0-2 1-8 8-15 17-15z"/>
<glyph glyph-name="clock-f" unicode="&#68;" d="M279 273c-3 3-4 7-4 10l0 113c0 1 0 1 0 2-1 11-11 18-21 17-10-1-18-10-18-20l0-125c0-5 2-10 6-14l61-61c8-7 19-7 27 0 0 0 0 0 0 0 8 8 8 21 0 28z m83 214c-1 1-2 1-4 2-2 1-4 2-6 2-2 1-4 2-7 3-1 1-1 1-2 1-4 2-7 3-10 4 0 0 0 0-1 0-62 21-132 16-194-19-116-66-157-214-91-330 0-1 1-2 1-4 21-35 51-65 86-85 0-1 1-1 2-1 16-10 33-17 52-23l0 0c51-15 105-12 154 6 1 0 1 0 2 1 3 1 6 2 9 3 1 1 2 2 4 2 2 1 4 2 6 3 2 1 4 2 6 3 1 1 2 1 4 2 2 2 5 3 8 5 0 0 1 0 1 0 70 43 116 120 116 207 0 96-55 179-136 218z m-105-411c-107 0-194 87-194 193 0 107 87 194 194 194 107 0 193-87 193-194 0-106-86-193-193-193z"/>
<glyph glyph-name="cloud-f" unicode="&#69;" d="M435 278c-3 46-31 88-73 108-64 31-140 3-171-61-9 6-20 9-31 9-4 0-8 0-11-1-34-6-55-38-49-71-40-1-71-34-71-73l0 0c0 0 0-59 51-72l4-1c1 0 2 0 2 0 4 0 14 0 16 0l317 0c38 0 72 27 80 65 9 45-20 88-64 97z"/>
<glyph glyph-name="cloudpassword-f" unicode="&#70;" d="M257 327c-22 0-34-14-37-40l74 0c-3 26-15 40-37 40z m175-42c-3 50-33 94-78 115-68 33-149 4-181-64-10 6-22 9-33 9-4 0-8 0-12-1-36-7-59-41-53-76-42-1-75-35-75-77l0-1c0 0 0 0 0 0 0-5-2-65 61-77 4 0 15 0 17 0l337 0c41 0 77 29 85 70 9 47-21 92-68 102z m-82-100c0-18-15-34-34-34l-118 0c-19 0-34 16-34 34l0 67c0 17 11 31 27 34 4 44 28 69 66 69 38 0 61-25 66-69 16-3 27-17 27-34l0-67z m-91 56c-6 0-11-4-12-10 0-3 0-5 2-7 2-2 3-5 3-8l-3-16c0 0 0-1 0-1 0-2 2-4 4-4l10 0c0 0 0 0 1 0 2 1 3 3 3 5l-3 16c0 3 1 6 3 8l0 0c2 2 3 4 2 7 0 5-4 9-10 10z"/>
<glyph glyph-name="cocreation-f" unicode="&#71;" d="M142 150c0 3-2 5-4 7-41 29-69 72-79 121 0 3-2 5-4 7-4 4-11 3-15-2-26-33-37-75-33-117 8-80 76-142 156-146 10 0 20 0 30 2 3 0 5 1 7 3 4 4 4 11 0 15-31 30-51 68-58 110z m-11 65c6-1 11 3 13 9 8 39 27 74 56 102 2 2 3 4 3 7 1 5-3 11-9 12-8 1-16 2-24 2-26 0-51-6-74-18-3-1-6-5-6-9 0-37 12-72 34-101 1-2 4-4 7-4z m338 68c-2 2-4 4-7 4-6 1-11-3-12-9-10-49-38-92-79-121-2-2-4-4-4-7-7-42-27-80-58-110-2-1-3-4-3-6-1-6 3-12 9-13 11-1 21-2 31-1 38 2 74 17 102 42 38 33 50 87 54 112 2 39-9 78-33 109z m-348 94c43 11 89 7 129-11 3-2 6-2 9 0 40 18 85 22 128 11 2 0 5 0 7 1 6 3 8 9 6 15-16 30-41 55-72 71-80 41-179 9-220-72-1-2-2-5-1-8 2-6 8-9 14-7z m196-260c-2 6-8 9-14 8-32-8-65-9-97-1-3 1-5 1-8 0-5-3-7-10-5-15 13-25 32-46 55-62 4-2 9-2 13 0 23 16 42 37 55 62 1 3 1 6 1 8z m-3 228c-2 0-5-1-6-3-4-5-4-12 0-16 29-27 49-63 57-102 0-3 2-5 4-7 5-4 12-3 16 2l0 0c21 29 33 64 33 101 0 4-2 8-6 9-23 12-48 18-74 18-8 0-16 0-24-2z m6-176c0 0 0 0 0 0 0 0 0-1 0-1l0 1z m13 21c-2 49-26 95-65 124-8 6-19 6-27 0-40-29-64-75-65-125 0-10 2-14 13-21 42-18 89-18 131 0 11 6 13 8 13 22z"/>
<glyph glyph-name="cogsettings-f" unicode="&#72;" d="M320 239l2-12c0-2 2-4 5-4 0 0 4-1 9-1 5 0 10 1 10 1 3 0 5 2 5 4l2 12c4 1 8 2 12 3 4 2 8 3 12 5l8-9c2-1 5-2 7 0 0 0 4 2 8 5 3 3 7 6 7 6 2 1 2 4 1 6l-5 11c6 6 11 13 15 21l12-2c2-1 4 1 6 3 0 0 2 5 3 9 2 5 3 9 3 9 0 3-1 5-3 6l-11 6c1 8 1 16 0 24l10 6c2 1 4 3 3 6 0 0-1 4-2 9-2 4-4 9-4 9-1 2-3 4-6 3l-11-1c-4 7-9 14-16 20l6 11c1 2 0 5-1 6 0 0-4 3-8 6-4 3-8 6-8 6-2 1-5 0-7-1l-8-9c-7 4-15 6-23 8l-2 12c0 2-2 4-5 5 0 0-5 0-10 0-4 0-9 0-9 0-2-1-5-3-5-5l-2-12c-4-1-8-2-12-3-4-1-8-3-11-5l-9 9c-2 1-4 2-6 1 0 0-4-3-8-5-4-3-8-7-8-7-2-1-2-4-1-6l5-11c-6-6-11-13-15-21l-12 2c-2 0-5-1-6-3 0 0-1-4-3-9-1-4-2-9-2-9-1-3 0-5 2-6l12-6c-1-8-1-17 0-25l-1 0-11-5c-2-1-3-4-3-6 0 0 2-5 3-10 1-4 3-9 3-9 1-2 4-3 6-3l12 2 1 0c4-7 9-14 15-20-1 0-1 0-1-1l-5-10c-1-3-1-5 1-7 0 0 4-3 8-6 4-3 8-5 8-5 2-1 5-1 6 1l9 8 0 1c7-4 15-6 23-8z m-16 124c18 18 47 18 65 0 18-18 18-48 0-66-18-18-47-18-65 0-19 18-19 48 0 66z m-49-175l-14 6c0 10-1 19-4 29l12 8c2 1 3 4 3 7 0 0-2 5-5 10-2 6-5 11-5 11-2 2-5 4-8 3l-13-4c-6 9-13 16-21 23l5 13c1 3 0 6-3 7 0 0-4 3-9 6-5 3-11 5-11 5-3 1-6 1-7-2l-9-11c-9 4-19 6-28 6l-4 14c-1 3-4 5-7 5 0 0-6 0-12-1-5-1-11-2-11-2-3-1-5-3-5-6l-1-15c-4-1-9-3-13-5-5-2-9-4-13-7l-12 9c-2 1-5 1-8 0 0 0-4-3-8-7-4-4-8-9-8-9-2-2-3-5-1-8l8-12c-6-8-11-17-15-26l-14 0c-3 0-6-2-7-5 0 0-1-4-2-10-2-6-2-12-2-12 0-3 2-6 4-7l14-5c0-10 1-20 4-29l-1 0-12-8c-2-2-3-5-2-8 0 0 2-6 4-11 2-5 5-10 5-10 2-2 5-3 7-3l14 4 1 0c6-8 13-15 21-22-1 0-1 0-1 0l-5-14c-1-2 0-6 3-7 0 0 5-4 10-7 5-2 10-4 10-4 3-1 6-1 8 2l9 11 0 1c9-4 18-5 28-6l4-14c1-3 4-5 7-5 0 0 5 0 11 1 6 1 12 2 12 2 2 1 5 3 5 6l0 15c5 1 10 3 15 5 4 2 8 5 12 7l12-9c2-2 5-2 8 0 0 0 4 4 8 8 4 4 8 8 8 8 2 2 2 5 0 8l-8 12c6 8 12 17 15 26l15 0c3 0 5 1 6 4 0 0 2 6 3 12 1 5 2 11 2 11 0 3-2 5-4 6z m-81-27c-18-24-53-28-77-9-24 18-29 53-10 77 19 24 54 29 78 10 24-19 28-54 10-78z m316-12c-1 2-2 4-4 4l-10 2c-1 6-3 13-6 19l6 7c2 1 2 3 1 5 0 0-2 3-4 6-2 3-5 7-5 7-2 1-4 1-6 1l-8-5c-5 5-11 9-17 12l1 10c0 2-1 4-3 5 0 0-3 1-7 2-4 1-8 2-8 2-2 0-4-1-5-2l-4-9c-7 1-13 1-20 0l-4 9c-1 2-3 2-5 2 0 0-5-1-8-2-4-1-7-3-7-3-2-1-3-3-3-5l2-10c-3-1-6-3-9-5-3-2-5-4-8-7l-8 5c-2 0-4 0-6-1 0 0-2-3-4-6-3-4-5-7-5-7-1-2 0-4 1-6l7-6c-3-7-5-13-6-20l-10-2c-2-1-3-2-4-4 0 0 0-4 0-8 0-4 1-8 1-8 0-2 2-4 3-4l11-1c1-7 3-13 6-20 0 0 0 0 0 0l-7-7c-2-1-2-3-1-5 0 0 2-4 5-7 2-3 4-6 4-6 2-1 4-2 6-1l9 5 0 0c5-5 11-9 17-12 0 0 0 0 0 0l-2-10c0-2 1-4 3-5 0 0 4-1 8-3 3-1 7-1 7-1 2-1 4 0 5 2l4 9 0 0c7-1 14-1 20 0l5-8c1-2 3-3 5-3 0 0 3 1 7 2 4 2 8 3 8 3 2 1 3 3 3 5l-2 10c3 2 6 4 8 6 3 2 6 4 8 6l9-4c2-1 4-1 5 1 0 0 3 3 5 6 2 3 4 7 4 7 1 1 1 4-1 5l-7 7c3 6 5 13 7 20l10 1c1 1 3 2 3 4 0 0 1 5 1 9-1 3-1 7-1 7z m-54-26c-9-19-32-26-51-17-19 9-26 32-17 51 9 19 32 26 51 17 19-9 26-32 17-51z"/>
<glyph glyph-name="colorpalette-f" unicode="&#73;" d="M468 399c-130 269-463-67-423-259 1-3 3-14 4-21 1-6 11-43 40-58 9-3 22-8 32-9 23-1 46 3 58 26 3 4 6 8 8 12 19 29 35 60 62 46 26-13 10-55 11-76 12-134 308 90 207 339z m-307-297c0 0-1 0-1 0-20-18-51-15-68 6-18 20-15 52 5 69 0 1 1 1 1 1 20 17 51 15 68-6 18-21 15-52-5-70z m12 146c-15-8-33 1-39 18-7 18-1 39 14 46 15 7 33-1 40-19 7-18 0-38-15-46z m92 96c-20-17-48-16-66 3 0 0 0 1-1 1-15 19-12 47 8 63 19 16 48 15 65-4 0 0 1 0 1-1 15-19 12-47-7-62z m48 63c0 0 0 1 0 1-11 17-7 39 9 50 17 11 39 8 52-8 0 0 0 0 0 0 11-17 7-39-10-50-16-12-39-8-51 7z m107-259c-21-25-57-30-79-13-23 17-24 51-2 75 21 24 57 30 79 13 23-18 24-51 2-75z m-2 120c-22-11-48 2-58 30-10 27 0 58 22 69 21 11 47-2 57-30 10-27 0-58-21-69z"/>
<glyph glyph-name="compass-f" unicode="&#74;" d="M330 373c-5 3-11-3-14-6l-85-89c-3-4-6-8-8-13l-47-113c-2-3-5-11 0-15 1 0 2-1 3-1 5 0 9 5 11 7l84 89c4 3 7 8 9 13l47 113c2 3 5 12 0 15z m-60-122c-2-7-8-13-16-13-9 0-16 7-16 16 0 1 0 3 0 4 2 7 8 13 16 13 9 0 16-7 16-16 0-1 0-3 0-4z m214 18c0 2-1 4-1 7 0 2 0 4 0 6-1 2-1 5-1 7-1 2-1 3-1 5-1 3-1 5-2 8 0 1 0 2 0 3-1 3-2 6-2 9-1 4-2 7-3 10 0 0 0 0 0 1-1 3-2 6-4 9 0 1 0 1 0 2-33 88-117 150-216 150-98 0-179-60-213-145 0 0 0-1 0-1-1-2-2-5-3-8-1-1-1-2-1-3-1-2-2-4-2-6-1-3-2-6-3-9 0-1 0-1 0-1-1-3-2-6-3-10 0 0 0-1 0-1-1-4-1-7-2-11 0 0 0 0 0-1 0-3-1-6-1-9 0-1 0-2 0-2-1-4-1-7-1-11 0 0 0-1 0-1 0-3 0-6 0-10 0 0 0-1 0-2 0-3 0-6 0-9l0-1c0-3 0-6 1-10 0 0 0 0 0-1 0-3 0-6 1-9 0 0 0 0 0-1 0-3 1-6 1-10 0 0 1-1 1-1 0-4 1-9 2-13 1 0 1-1 1-2 0-2 1-4 2-6 0-2 1-4 1-5 1-1 1-2 1-3 5-14 11-27 18-41 0 0 0 0 0 0 21-36 50-66 86-86 3-2 7-4 11-6 0 0 0 0 0 0 4-2 7-4 10-5 2-1 4-2 5-2 2-1 4-2 6-2 2-1 4-2 6-3 1 0 2 0 3-1 2 0 5-1 7-2l1 0c60-18 124-10 178 20 14 8 27 17 39 28 1 0 1 1 1 1 2 2 4 3 6 5 1 1 2 2 3 3 1 1 3 3 4 4 2 2 5 5 7 8 0 0 1 0 1 1 2 2 4 4 6 6 0 1 1 2 1 2 2 2 4 5 5 7 0 0 1 1 1 2 4 5 8 11 12 17 0 0 0 0 0 1 2 2 3 5 5 8 0 0 0 1 0 2 2 2 3 5 4 7 0 1 1 1 1 2 1 3 2 5 3 8 1 0 1 1 1 2 1 2 2 5 3 8 0 0 1 1 1 1 1 3 2 7 3 10 1 4 2 8 3 11 0 0 0 1 0 1 1 4 2 8 3 12 0 0 0 0 0 0 1 4 1 8 2 13 0 1 0 2 0 3 1 2 1 4 1 6 0 3 0 5 1 7 0 1 0 2 0 4 0 3 0 6 0 9 0 1 0 1 0 1 0 4 0 9 0 13z m-230-197c-101 0-184 83-184 184 0 102 83 184 184 184 102 0 184-82 184-184 0-101-82-184-184-184z"/>
<glyph glyph-name="competency-f" unicode="&#75;" d="M433 140c-4 67-47 111-103 131-9 3-18 2-26-3-15-9-32-14-50-14-18 1-36 5-51 15-8 4-17 5-25 2-52-19-92-58-97-116-2-19-2-39-1-58 0-13 7-26 18-35 74-55 172-67 256-30 2 0 4 1 7 3l0 0 4 1c5 2 10 4 13 5l14 8c0 0 34 18 41 57l0 10 0 24z m-108-28c-1-3-2-6-2-6-1-2-3-3-4-2l-9 1c-2-5-6-10-10-14l4-7c1-2 0-3-1-5 0 0-2-2-4-4-3-1-6-3-6-3-2-1-3-1-5 0l-5 6c-3-1-5-2-8-3-3-1-5-1-8-2l-1-8c-1-2-2-3-3-3 0 0-4 0-7 0-3 0-6 0-6 0-2 0-3 1-4 3l-1 8c-5 1-8 1-13 4-1 0-3 1-3 1l-6-5c-1-1-3-2-4-1 0 0-3 2-5 3-3 2-5 4-5 4-2 2-2 3-1 5l3 7 1 0c-4 4-8 9-10 14l-1 0-8-1c-1 0-3 0-4 2 0 0-1 3-2 6-1 3-2 6-2 6 0 2 1 3 2 4l7 4 1 0c-1 5-1 11 0 16l-8 4c-1 1-2 2-2 4 0 0 1 4 2 7 1 2 2 5 2 5 1 2 3 3 4 3l8-2c3 5 6 10 10 14l-3 7c-1 2-1 4 1 5 0 0 2 2 5 4 2 2 5 3 5 3 2 1 3 1 4 0l6-6c3 1 5 2 8 3 3 1 5 1 8 2l1 8c1 2 2 3 4 3 0 0 3 0 6 0 3 0 6 0 6 0 2 0 3-2 4-3l1-8c5-1 11-3 16-5l5 5c1 2 3 2 5 1 0 0 3-2 5-4 3-2 5-4 5-4 1-1 2-2 1-4l-4-7c4-4 8-9 11-14l7 1c2 0 4-1 4-2 0 0 2-3 3-6 1-3 2-6 2-6 0-2-1-3-2-4l-8-4c1-5 1-11 0-16l8-4c1-1 2-2 2-4 0 0-1-3-2-6z m2 243c56 152-156 182-160 49 4-110 112-176 160-49z m-70-183c-21 0-38-17-38-38 0-21 17-38 38-38l1 0c21 0 38 17 38 38 0 21-17 38-39 38z"/>
<glyph glyph-name="configuration-f" unicode="&#76;" d="M330 252l47-47c1-1 3-2 5-3 6-1 12 3 13 9 9 38-3 77-31 104-26 27-64 38-101 32-5-1-9 0-13 3l-123 123c-24 25-58 25-83 0-24-24-24-58 0-82l123-123c3-4 4-9 4-14-7-36 5-74 31-100 27-28 67-40 105-32 2 1 4 2 5 3 5 4 5 11 0 16l-46 47c-18 17-18 46 0 64 18 17 46 17 64 0z m136-165c-4 5-11 12-11 12-3 4-4 9-2 14l3 5c2 4 1 9-2 13l-16 16c-3 3-8 3-11 0l-57-57c-3-3-3-8 0-12l16-15c3-3 9-4 13-2l5 2c4 2 10 2 14-1 0 0 7-7 11-12l27-27 38 38-28 26z"/>
<glyph glyph-name="contractedprovider-f" unicode="&#77;" d="M451 471c-5 15-18 25-34 25l-307 0c-20 0-36-16-36-36l0-372c0 0 0 0 0 0l0-51c0-16 12-30 27-33 16 0 48-1 48-1l268 0c16 0 30 12 34 27 1 2 1 5 1 7l0 425c0 3 0 6-1 9z m-63-42c-20-53-65-25-66 20 2 55 89 43 66-20z m-268-8l124 0c8 0 15-6 15-15 0-8-7-15-15-15l-124 0c-8 0-14 7-14 15 0 9 6 15 14 15z m0-65l124 0c8 0 15-7 15-15 0-9-7-15-15-15l-124 0c-8 0-14 6-14 15 0 8 6 15 14 15z m295-262c0-2-1-5-3-6l-16-16 16-16c2-2 3-4 3-7l0-5c0-2-1-2-2-2l-6 0c-2 0-5 1-6 3l-11 10c-1 2-3 3-5 3-2 0-4-1-6-3l-10-10c-2-2-4-3-7-3l-5 0c-1 0-2 0-2 2l0 5c0 2 1 5 3 6l16 16-16 16c-2 2-3 4-3 7l0 6c0 1 1 1 2 1l6 0c2 0 5-1 6-2l11-11c1-1 3-2 5-2 2 0 4 1 6 2l10 11c2 1 4 2 7 2l5 0c1 0 2 0 2-1z m-4 27l-290 0c-9 0-15 7-15 15 0 8 6 15 15 15l290 0c8 0 15-7 15-15 0-8-7-15-15-15z m0 64l-290 0c-9 0-15 6-15 14 0 9 6 15 15 15l290 0c8 0 15-6 15-15 0-8-7-14-15-14z m0 63l-290 0c-9 0-15 7-15 15 0 8 6 15 15 15l290 0c8 0 15-7 15-15 0-8-7-15-15-15z m15 74c0-5-2-10-6-14-5-4-11-8-17-11l-1 0-6-2-7-2c-20-7-41-7-61 0-2 1-5 2-7 2l-6 2 0 0c-7 3-13 7-18 11-4 3-7 8-7 14-1 7-1 15 0 23 1 9 4 18 10 25 0 0 0 0 0 1 7 8 17 15 28 19 2 1 5 1 7 0l3-1c1-1 2-1 3-2 6-3 11-4 17-4 6 0 11 1 17 4 1 0 2 1 3 2l3 1c2 1 5 1 7 0 11-4 21-11 28-19l1-1c5-7 9-16 10-25 0-8 0-16 0-23z"/>
<glyph glyph-name="copier-f" unicode="&#78;" d="M180 376l245 86c1 0 2 1 3 1 3 3 4 7 1 11l-8 12c-4 5-10 7-16 5l-225-66c-5-2-9-7-10-13l0-29c0-1 0-3 1-4 2-3 6-4 9-3z m241-35l-232 0c-10 0-19-8-19-19l0-7c0-1 0-2 0-2-1-4-5-6-9-5l-74 26c-1 0-3 1-4 0-3 0-6-3-5-6l-1-20c1-5 4-11 9-14l75-37c0 0 9-5 9-12l0-38c0-9-9-6-9-6l-74 35c-1 0-3 1-4 1-3-1-6-4-5-7l-1-19c1-6 4-11 9-14l75-48c5-3 9-8 9-14l0-87c0-2 0-4 0-6 0-10 8-18 18-19l234 0c10 0 19 9 19 19l0 282c-1 10-9 17-19 17z m-23-266c0 0 0-11-14-11l-158 0c0 0 0 0-1 0-7 1-12 6-12 14l0 25c0 5 4 8 9 9l62 0c2-6 6-10 12-13 12-5 26 1 31 13l62 0c8 0 9-10 9-10z m0 81c0 0 0-11-14-11l-158 0c0 0 0 0 0 0-8 0-13 6-13 13l0 25c0 5 4 9 9 9l62 0c2-5 6-10 12-12 12-5 26 0 31 12l62 0c8 0 9-9 9-9z"/>
<glyph glyph-name="currencydollar-f" unicode="&#79;" d="M306 313l0 65c35-3 70-11 102-23 19-8 31 1 45 15l36 40c2 2 3 5 3 7 0 4-1 7-6 9-48 32-114 45-181 49-4 22-18 33-43 33l-23 0c-9 0-13-4-13-11l0-21c-106-3-186-31-186-117 0-81 70-112 180-132l6-1 0-70c-27 2-68 10-91 21l-17 8c-17 7-34-1-48-15l-39-38c-2-2-3-5-3-8 0-3 3-7 6-8 18-14 44-25 78-34 38-10 77-17 116-20 3-23 17-34 43-34l23 0c9 0 13 4 13 11l0 20c62 0 118 2 151 3 18 1 32 14 32 32 1 23 2 49 2 49l0 7c0 101-68 144-186 163z m-80 14l-6 1c-25 5-57 14-57 30 0 12 9 18 31 21l32 3z m81-172l0 62c28-4 58-14 58-37 0-19-22-23-58-25z"/>
<glyph glyph-name="currencyeuro-f" unicode="&#80;" d="M428 125l-83 0c-36-1-71 12-99 35l192 0c8 0 13 4 13 12l0 10c0 31-15 46-46 46l-201 0c-3 8-5 16-6 24l240 0c8 0 13 4 13 12l0 10c0 31-15 46-46 46l-196 0c15 24 43 36 84 36l185 0c8 0 13 4 13 11l0 39c0 47-28 74-74 74l-134 0c-114 0-195-53-214-160l-33 0c-8 0-13-4-13-11l0-10c0-30 14-46 43-47l2-24-32 0c-8 0-13-4-13-11l0-11c0-31 15-46 46-46l15 0c40-104 131-160 243-160l124 0c0 0 0 0 0 0l25 0c13 0 23 10 23 23l0 54c-9 30-34 47-71 47z"/>
<glyph glyph-name="currencypounds-f" unicode="&#81;" d="M491 45l0 9c0 47-28 74-74 74l-167 0c-33 0-49 16-49 48l0 30 146 0c9 0 13 4 13 12l0 19c0 26-15 44-47 44l-112 0 0 18c0 46 30 68 90 68 30-1 59-7 86-19 23-8 43-14 56 11l37 60c1 3 2 5 2 8 0 4-3 8-11 13-44 31-115 51-170 51-140 0-221-73-221-210l-43 0c-8 0-13-4-13-11l0-20c0-25 15-44 48-44l8 0 0-191c0-7 5-11 14-11l317 0c5 0 10 0 14 0l60 0c9 0 16 7 16 17l0 20c0 1 0 2 0 3z"/>
<glyph glyph-name="currencyyenyuan-f" unicode="&#82;" d="M485 476l-36 0-7 0c-20 0-39-8-52-23l-82-98c-11-12-26-18-42-19-16 1-31 8-42 19l-85 101c-12 13-29 20-54 20l-42 0c-8 0-11-5-11-13l0-46c0-19 7-38 20-53l93-110-73 0c-8 0-13-3-13-11l0-10c0-30 15-44 45-44l96 0 0-24-128 0c-8 0-13-4-13-11l0-10c0-30 15-44 45-44l96 0 0-17c0-45 27-72 72-72l45 0c7 0 10 5 10 13l0 76 129 0c8 0 12 3 12 10l0 10c0 30-14 45-44 45l-97 0 0 24 128 0c9 0 13 3 13 11l0 10c0 30-14 44-44 44l-45 0 96 111c8 10 14 21 18 33 1 3 2 9 2 9 0 1 0 2 1 4l0 54c0 6-5 11-12 11z"/>
<glyph glyph-name="currencyyenyuanb-f" unicode="&#83;" d="M483 487l-51 0c-17-2-33-10-45-23l-82-97c-11-12-26-19-43-19-15 0-31 7-41 19l-85 100c-11 12-26 19-46 20l-54 0c-5-1-8-6-8-13l0-45c1-20 8-39 20-54l94-110-74 0c-8 0-12-3-12-10l0-11c0-30 14-44 44-44l97 0 0-106c0-46 27-72 72-72l45 0c7 0 10 5 10 13l0 165 129 0c8 0 13 4 13 11l0 10c0 30-15 45-45 45l-45 0 96 111c8 9 15 20 18 32 1 3 2 9 2 9 0 2 1 3 1 4l0 55c0 5-5 10-10 10z"/>
<glyph glyph-name="cursorwriting-f" unicode="&#84;" d="M417 432l37 34c3 3 6 4 10 4l27 0c8 0 14 6 15 13 0 1 0 1 0 2 0 8-6 14-14 14l-39 0c-4 0-8-1-11-4l-34-31c-6-6-16-6-23 0l-34 31c-3 3-7 4-12 4l-37 0c-8 1-14-5-15-13 0 0 0-1 0-1 0-8 6-15 14-15l28 0c4 0 8-1 11-4l36-33c4-3 5-8 5-12l0-321c0-4-1-8-4-11l-38-39c-3-3-7-5-11-5l-26 0c-8 0-14-5-15-13 0 0 0-1 0-1-1-8 6-15 14-15l39 0c4 0 8 2 11 5l34 35c0 0 0 0 0 0 7 7 17 6 23 0l33-35c4-3 8-5 12-5l39 0c0 0 1 0 1 0 8 1 14 8 13 16-1 7-7 13-15 13l-26 0c-4 0-8 2-11 5l-38 39c-3 3-4 7-4 11l0 321c0 4 2 8 5 11z m-120-319c9 3 13 13 10 22l-95 258c-2 6-9 11-16 11l-63 0c-7 0-14-5-16-11l-54-146-42-115c-3-9 4-20 14-20l47 0c5 2 9 6 11 11l13 36c2 7 9 11 16 11l83 0c8 0 14-4 17-11l12-36c2-7 9-11 16-11l41 0c2 0 4 0 5 1z m-114 111l-39 0c-1 0-3 1-4 1-6 2-9 9-7 15l25 73c1 2 2 3 4 4 3 1 6-1 7-4l25-73c1-1 1-3 1-4 0-6-5-12-12-12z"/>
<glyph glyph-name="dangercaution-f" unicode="&#85;" d="M510 71c0 0 0 1 0 1 0 1-1 1-1 2 0 1-1 1-1 2l-233 404c0 1-1 2-2 3-1 2-3 3-5 4-4 2-9 3-13 2-4-2-9-6-13-12l-154-267c0 0-54-95-57-99 0 0 0 0 0 0l-20-35c-7-12 2-27 16-27l36 0c6 0 12 0 18 0l408 0c5 0 10 1 13 3 6 4 10 12 8 19z m-271 240c0 10 9 19 20 19 10 0 19-9 19-19l0-111c0-10-9-19-19-19-11 0-20 9-20 19z m20-196c-13 0-24 11-24 24 0 13 11 24 24 24 14 0 24-11 24-24 0-13-10-24-24-24z"/>
<glyph glyph-name="dangerelectricity-f" unicode="&#86;" d="M501 44c0 0 0 1-1 2 0 1 0 2-1 3 0 1 0 1 0 1l-232 400c-6 11-19 12-27 5 0-1-1-1-1-1-1-1-2-2-2-3-1 0-1-1-1-1l-153-264-2-3c0 0-53-95-56-99 0 0-1 0-1 0l-19-34c-7-12 1-27 15-27l463 0c2 0 3 0 4 0 1 1 2 1 2 1 8 3 13 11 12 20z m-217 244l-44-82c-2-2-1-5 1-6 1-1 2-1 3-1l29 0c2 0 5-1 5-4 0-1 0-3-1-4l-52-101c-2-4-3-4-3 1l8 77c1 4-2 8-6 8 0 0-1 0-1 0l-20 0c-4 0-7 3-7 7 0 0 0 1 0 2l23 102c1 5 5 9 10 9l50 0c3 0 5-2 6-4 0-1 0-3-1-4z"/>
<glyph glyph-name="dataprotection-f" unicode="&#87;" d="M241 138c-4 0-8 0-12 0-118 2-118 23-118 23l1 51c0 0 0 1 0 1l1-1c2-4 47-16 133-18 24 0 44 0 62 2 3 8 9 16 14 23-19-2-45-3-80-3-128 1-129 23-129 23l1 53c2-4 47-18 133-20 87-2 130 12 130 12l0-29c11 3 23 5 35 5 11 0 22-2 33-5 1 9 1 18 2 27l0 34c0 4 0 17 1 20 0 0 0 0 0 0l1 65c0 8-5 15-13 17-11 3-27 7-46 13-37 12-67 27-93 44-8 5-16 11-23 16l-20 15c-5 3-12 4-17 0l-21-14c-31-22-75-48-137-60l-28-5c-7-2-12-8-12-15l-2-122c-2-120 72-226 184-265l11-4c3-1 7-1 10 0l11 3c30 9 56 23 80 41-20 19-33 45-35 74-16-1-35-1-57-1z m137 171c0 0-6-17-134-15-129 1-129 22-129 22l0 51c18-8 49-15 134-17 86-2 130 12 130 12l-1-53z m-265 84c5 6 64 13 135 11 72-1 130-9 130-18 0-10-58-16-130-15-72 1-140 14-135 22z m327-169c-9 4-18 6-28 6-27 0-51-12-66-31-12-14-19-32-19-51 0-2 1-5 1-7 1-24 12-44 29-58 14-12 32-20 52-20 46-1 84 36 85 82 1 36-22 67-54 79z m12-116c0-3-2-5-5-6l-22 0-50 1c0 0-1 0-3 1-2 1-4 2-3 6l0 45 0 1 0 5c0 3 2 5 6 6 0 0 0 0 1 0l9-1c1 0 1 1 1 1l0 12c0 0 0 1 0 1l0 1c1 13 12 23 26 22 7 0 13-2 17-7 5-5 7-10 7-17l0 0c0-1 0-1 0-1l0-3 0-9c0 0 0-1 1-1l10 0c0 0 1-1 1-1 3-1 5-3 5-5l-1-51z m-35 39c-1 1-3 2-5 3-2 0-3 0-5 0-4-1-7-5-7-9 0-1 0-2 0-2 0-3 2-5 4-6 0 0 0-1 0-1l0-4 0-11c0-3 4-6 7-5 2 1 4 3 4 5l1 15c3 2 5 6 4 10-1 1-2 3-3 5z m-6 45c-7 0-12-6-12-13l-1-9c0-1 1-2 2-2l18 0 4 0c1 0 1 0 1 1l0 10c0 0 0 0 0 1 0 6-5 12-11 12z"/>
<glyph glyph-name="digitalclient-f" unicode="&#88;" d="M278 289c17 47-48 56-50 15 1-34 35-55 50-15z m-1-29c-2 1-5 0-7-1-4-3-10-4-15-4-5 0-11 1-15 4-3 1-5 2-8 1-15-6-28-17-29-35-1-5-1-11 0-17 0-5 2-8 5-11 29-21 69-20 96 4 2 1 3 3 3 6 0 3 1 6 1 9 1 23-13 37-31 44z m213-101l-32 0c-3 0-5 2-5 5l0 143c0 0 0 24 1 29l0 34c0 15-11 28-26 30-12 0-28 0-28 0l-139 0-178-1c-14-2-25-15-25-30l0-205c0-3-2-5-5-5l-32 0c-5 0-10-4-10-10l0-12c0-16 13-28 28-28l433 0c16 0 28 12 28 28l0 12c0 6-5 10-10 10z m-77 5c0-3-2-5-5-5l-103 0c-3 0-5-2-5-5l0-6c0-6-4-10-10-10l-69 0c-5 0-10 4-10 10l0 6c0 3-2 5-5 5l-103 0c-3 0-5 2-5 5l0 180c0 9 7 15 15 15l285 0c8 0 15-6 15-15l0-180z"/>
<glyph glyph-name="digitalexternal-f" unicode="&#89;" d="M275 355c-16 12-39 9-52-7-12-17-8-40 8-52 4-3 7-8 7-13l0-151c-1-8 5-15 13-16 1 0 1 0 2 0 9 0 15 7 15 16l0 151c0 5 3 10 7 13 3 2 6 5 8 8 12 16 9 39-8 51z m-77-157l-34 26c-3 3-4 7-4 11l0 48c0 5 2 10 6 13 10 7 15 18 15 30-1 20-16 35-35 36-13 1-24-5-31-14-13-17-9-40 7-52 4-3 7-8 7-13l0-61c0-4 1-8 4-11l34-26c3-3 5-7 5-11l0-42c0-8 6-15 14-16 0 0 1 0 1 0 9 0 16 7 16 16l0 54c0 5-2 9-5 12z m203 127c-2 18-16 33-34 35-20 1-38-14-40-34 0-12 5-23 15-30 4-3 6-8 6-13l0-48c0-4-1-8-4-11l-34-26c-3-3-5-7-5-11l0-55c0-1 0-1 0-2 1-8 9-15 17-14 8 1 14 8 14 17l0 41c0 5 1 9 4 12l34 25c3 3 5 8 5 12l0 60c0 5 3 10 7 13 9 7 14 18 14 30z m-13 92c1-1 2-1 2-2 0 0 1 0 1 0 5-5 13-4 18 1l15 14 26 27-1-9c0-5-1-11-1-16-1-2 0-4 1-6 1-1 3-1 4-2 5-1 10 0 14 3 4 3 6 8 5 13 1 7 2 15 2 23l0 1c1 6 2 11 2 17 1 5-1 11-5 15-4 4-10 6-15 5-16-1-32-3-45-4-1 0-2 0-2 0-7-2-11-8-10-15l0-2c0-2 0-4 2-6 2-1 4-1 8-1l22 2-44-44c0-1-1-1-2-2 0-1 0-1-1-1-1-2-1-6 1-8z m-343 7c2 0 3 1 4 2 2 1 2 3 2 5-1 6-1 11-2 17l-1 9 27-27 14-14c5-6 13-6 19-2 0 0 0 0 0 1 1 0 2 1 2 2l3 3c3 2 3 5 1 8 0 0 0 0 0 0-1 1-2 2-3 3l-44 44 23-2c4-1 6-1 8 1 1 1 2 3 2 6l0 2c1 7-3 13-10 14-1 1-1 1-2 1-14 1-30 3-45 4-6 0-11-1-15-5-4-5-6-10-5-16 0-5 1-11 1-16l0-1c1-8 2-16 2-24 0-5 2-9 5-13 4-2 9-3 14-2z m69-309c-1 0-1 1-2 2l-3 3c-2 2-6 2-8 1 0-1 0-1-1-1 0-1-1-2-2-2l-44-44 2 22c1 4 1 6-1 8-2 2-4 2-6 2l-2 0c-7 1-13-3-15-10 0 0 0-1 0-2-1-13-3-29-4-45-1-5 1-11 5-15 4-4 10-6 16-5 5 1 11 1 16 1l1 0c8 1 16 2 23 3 5 0 10 1 13 5 3 4 4 9 3 13 0 2-1 4-2 5-2 1-4 2-6 1-5 0-11-1-16-1l-9-1 27 26 14 15c5 5 6 13 1 18 0 0 0 1 0 1z m361-20c0 1 0 1 0 2-1 7-8 11-14 10l-3 0c-2 0-4-1-5-2-2-2-2-4-1-8l2-23-44 44c-1 1-2 2-3 3 0 0 0 0 0 0-3 2-6 2-8-1l-3-2c-1-1-2-2-2-3 0 0-1 0-1 0-4-5-4-14 1-18l15-15 26-26-8 0c-6 1-11 1-17 2-2 0-4 0-5-2-1-1-2-2-2-4-1-5 0-10 2-14 4-3 8-5 13-5 8 0 16-1 23-2l2 0c5 0 10-1 16-1 6-1 11 1 15 5 4 4 6 9 6 15-2 15-3 31-5 45z"/>
<glyph glyph-name="digitalinternal-f" unicode="&#90;" d="M277 327c-16 13-39 9-52-7-12-17-8-40 8-52 4-3 7-8 7-13l0-151c-1-8 5-15 14-16 0 0 0 0 1 0 9 0 16 7 16 16l0 151c0 5 2 10 6 13 3 2 6 5 8 8 12 16 9 39-8 52z m-77-157l-34 26c-3 3-4 7-4 11l0 48c0 5 2 10 6 13 10 7 15 18 15 30-1 20-16 35-35 36-12 1-24-5-31-14-13-17-9-40 7-52 4-3 7-8 7-13l0-61c0-4 2-8 4-11l34-26c3-3 5-7 5-11l0-42c0-8 6-15 14-16 0 0 1 0 2 0 8 0 15 7 15 16l0 55c0 4-2 8-5 11z m203 128c-2 18-16 32-34 34-20 1-38-14-40-34 0-12 6-23 15-30 4-3 7-8 7-13l0-48c0-4-2-8-5-11l-34-26c-3-3-4-7-4-11l0-55c0-1 0-1 0-2 1-8 8-15 16-14 8 1 14 8 14 17l0 41c0 5 2 9 5 12l34 26c2 2 4 7 4 11l0 60c0 5 3 10 7 13 9 7 15 18 15 30z m5 84c5 1 11 1 16 2l1 0c8 0 16 1 24 2 4 0 9 1 12 5 3 4 4 9 3 14 0 1-1 3-2 4-2 1-3 2-5 1-6 0-12-1-17-1l-9-1 27 27 14 14c6 5 6 13 1 18 0 0 0 1 0 1-1 1-1 1-2 2l-3 3c-2 2-6 3-8 1 0-1 0-1-1-1 0-1-1-1-2-2l-44-44 2 22c1 5 1 6-1 8-2 2-4 2-6 2l-2 0c-7 2-13-3-15-10 0 0 0-1 0-1-1-14-3-30-4-46-1-5 1-11 5-15 4-4 10-6 16-5z m-363 52l26-26-8 0c-6 1-11 1-17 2-2 0-4 0-5-2-1-1-2-2-2-4-1-5 0-9 2-14 4-3 8-5 13-5 8 0 16-1 24-2l1 0c5 0 10-1 16-1 6-1 11 1 15 5 4 4 6 9 6 15-1 16-3 31-5 45 0 1 0 1 0 2-1 7-8 11-14 10l-3 0c-2 0-4-1-5-2-2-2-2-4-2-8l3-23-44 44c-1 1-2 2-3 3 0 0 0 0 0 0-3 2-6 2-8-1l-3-2c-1-1-2-2-3-3 0 0 0 0 0 0-4-5-4-14 1-18l15-15z m56-342c-16-1-32-3-45-4-1 0-1 0-2 0-7-2-11-8-10-15l0-2c0-2 1-4 2-6 2-1 4-1 8-1l22 2-43-44c-1-1-2-1-3-2 0-1 0-1 0-1-2-2-2-6 1-8l2-3c1-1 2-1 3-2 0 0 0 0 0 0 5-5 13-4 18 1l15 14 26 27 0-9c-1-5-2-11-2-16-1-2 0-4 1-6 2-1 3-1 5-2 4-1 9 0 13 3 4 3 6 8 6 13 0 7 1 15 2 23l0 1c0 6 1 11 1 17 1 5-1 11-5 15-4 4-10 6-15 5z m381-72c0 0 0 0 0 0-1 1-2 2-3 3l-43 44 22-2c4-1 6-1 8 1 1 2 2 4 2 6l0 2c1 7-3 13-10 15-1 0-1 0-2 0-14 1-29 3-45 4-5 1-11-1-15-5-4-4-6-10-5-16 0-5 1-11 1-16l0-1c1-8 2-16 2-24 0-4 2-9 6-13 4-2 9-3 13-2 2 0 3 1 5 2 1 1 1 3 1 5-1 6-1 11-2 17l0 9 26-27 15-14c4-6 13-6 18-2 0 0 0 1 0 1 1 0 2 1 3 2l2 3c3 2 3 5 1 8z"/>
<glyph glyph-name="dishreturn-f" unicode="&#48;" d="M482 380l-1 1c-10 4-20 10-35 10l-387 0c-16 0-30-11-30-29 0-25 3-51 8-76 11-50 34-106 84-137 47-31 160-30 206 0 26 17 47 40 60 68 3 4 4 3 9 4 71 2 99 36 110 66l5 25c-3 53-29 68-29 68z m-203-184l-170 0c-2 0-3 0-3 3l0 8c0 0 0 1 0 1 0 7 6 11 12 11l161 0c69-1 72 80 3 82l-113 0c1-1 2-2 3-3 9-7 18-15 28-22 1-2 1-4 0-6-6-8-12-12-23-2-12 10-25 20-37 31-1 0-2 1-3 2-6 8-5 20 3 26 13 12 27 23 40 34 6 4 13 3 17-2 6-7 7-6-1-12l-24-20-2-2 0 0 112 0c99-6 99-125-3-129z m179 105c-12-26-38-29-50-29 0 0-1 0-1 1-3 0-4 3-4 6 5 18 7 36 9 55 0 5 5 9 10 9l21 0c11 0 27-18 15-42z"/>
<glyph glyph-name="dishwasher-f" unicode="&#49;" d="M88 441l311 0c7 0 13 6 13 14l0 24c0 8-6 14-13 14l-311 0c-7 0-13-6-13-14l0-24c0-8 6-14 13-14z m297 40c7 0 13-6 13-14 0-7-6-14-13-14-8 0-14 7-14 14 0 8 6 14 14 14z m-33 0c8 0 14-6 14-14 0-7-6-14-14-14-7 0-13 7-13 14 0 8 6 14 13 14z m48-67l-311 0c-8 0-14-6-14-13l0-307c0-5 0-9-1-13l0-14c0-21 18-39 39-39l59 0c1 0 2 0 3 0l199 0c0 0 1 0 1 0 21 1 38 18 38 39l0 336c-1 6-7 11-13 11z m-182-310c2 0 12 0 12 0 15 0 15-24 0-24l-82 0c-15 0-15 24 0 24 11 0 29 0 29 16l0 70c0 36-84 26-41 136 3 8 7 10 16 10l75 0c7 0 13-4 15-10 44-110-40-100-40-136l0-70c0-11 8-14 16-15z m97 27c-31 1-56 26-57 57 0 33 59 110 59 110 0 0 59-77 59-110-1-32-28-58-61-57z"/>
<glyph glyph-name="download-f" unicode="&#50;" d="M476 16c-1 18-15 33-33 33l-364 0c-18 0-33-15-33-33l0-10c0-3 3-5 6-5l419 0c3 0 5 2 5 5l-1 10z m-253 93c9-12 24-18 38-17 18 0 29 4 39 17l103 125c1 2 2 3 3 5 11 15 8 37-8 48l-14 12c-3 2-6 2-9-2l-81-99 0 276c0 7-6 13-13 13l-39 0c-8 0-13-6-13-13l0-276-82 100c-2 3-5 4-8 1l-14-12c-2-1-3-2-5-3-13-14-13-36 0-49 0 0 96-119 103-126z"/>
<glyph glyph-name="downstairs-f" unicode="&#51;" d="M506 69c-1 4-5 7-9 7-13 1-26 2-30 4-6 4-10 11-11 19l-9 71c0 5 0 11-1 16-1 5-3 10-5 15 0 0-17 38-22 51-3 10-4 20-2 31l2 10 11 51c1 7 9 42-15 52-22 10-35 2-41-4-10-11-31-38-38-45-5-6-8-14-7-22 0-3 1-5 2-7 4-13 8-26 12-38 2-5 3-10 4-14 0-4 0-8-1-11l-7-36c-1-5-3-10-5-16-2-4-4-8-7-11l-34-52c0 0-5-7-10-7-11 0-19 8-19 19l0 20c0 10-9 19-19 19l-72 0c-10 0-19 8-19 19l0 20c0 10-5 18-23 18l-80 0c-11 0-19-8-19-18l0-13c0-10 8-18 19-18l38 0c1 0 3 0 4 0 8 0 15-6 15-14l0-25c0-11 8-19 18-19l72 0c11 0 19-9 19-19l0-20c0-10 9-19 19-19l72 0c10 0 19-8 19-19l0-20c0-8 5-15 13-17l152 0c9 0 15 6 15 15l0 23c0 2-1 4-1 4z m-95 6l-19 0c-10 0-18 9-18 19l0 20c0 1 0 1 0 1-1 11-9 18-19 18l-24 0c-7 0 41 41 43 52 8 34 13 24 19 14l14-23c2-3 3-6 4-10 2-6 3-12 4-19l6-57c0 0 1-15-10-15z m21 345c17 0 29 14 29 31-1 16-15 29-32 28-16-1-29-15-28-31 1-16 15-29 31-28z"/>
<glyph glyph-name="ecar-f" unicode="&#52;" d="M507 247c-1 22-12 36-35 41-2 1-4 2-7 2-21 6-41 12-62 16-15 4-28 12-37 24-7 9-15 18-23 26-19 18-41 29-69 29-21-1-41 0-63 0-21 0-43-1-64 0-16 0-32-4-46-12-31-20-52-53-69-85-24-66 10-95 10-95 4 38 35 67 73 68 43 2 78-32 79-74l148 0c1 38 30 69 67 74 42 4 80-26 85-68 7 7 12 16 12 26 1 9 2 19 1 28z m-232 98l-28-51c-1-3 0-5 3-5l18 0c2 0 3-1 3-3 1-1 0-1 0-2l-33-64c-2-3-3-2-2 0l5 49c0 3-2 5-4 6 0 0-1 0-1 0l-13 0c-2-1-4 1-4 4 0 0 0 0 0 1l14 65c1 3 4 5 7 5l32 0c1 0 3-1 3-2 0-1 0-2-1-3z m-157-106c-29 0-53-24-53-53 0-29 24-52 53-52 29 0 52 23 52 52 0 29-23 53-52 53z m300 0c-29 0-53-24-53-53 0-29 24-52 53-52 29 0 52 23 52 52 0 29-23 53-52 53z"/>
<glyph glyph-name="eccard-f" unicode="&#53;" d="M504 302l-494 0c-4 0-6-3-6-6l0-158c0-19 16-35 35-35l31 0 4 0 401 0c2 0 4 0 6 1 16 3 28 17 28 34l0 160c-1 2-3 4-5 4z m-42-153c-9-11-25-13-37-4-9-7-23-7-33 0-11 10-12 26-3 37 9 11 25 13 36 4 10 8 24 8 33 0 12-9 13-26 4-37z m18 275l-446 0c-17-3-30-17-30-34l0-18c0-3 2-6 6-6l494 0c2 0 4 1 5 3l0 26c-2 15-14 27-29 29z"/>
<glyph glyph-name="email-f" unicode="&#54;" d="M52 404l165-129c7-6 15-11 23-15 0 0 1 0 1-1 2-1 5-1 7-2 1 0 3-1 4-1 3 0 6 0 9 0 1 1 3 1 4 1 2 1 5 2 8 3 8 4 16 9 23 15l165 129c11 9 9 17 7 21-3 5-7 8-18 8l-387 0c-10 0-15-2-18-8-3-5-4-12 7-21z m391-69l-148-116c-11-7-23-11-36-12l-6 0c-13 1-25 5-35 12l-148 116c-21 16-37 7-37-19l0-156-1-10c3-24 23-43 47-43l354 0c23 0 41 16 46 37 1 3 1 7 1 10l0 162c0 26-17 35-37 19z"/>
<glyph glyph-name="emailat-f" unicode="&#55;" d="M71 310l137-107c11-8 25-13 39-13l7 0c14 0 27 5 38 13l137 107c6 5 10 12 10 20l0 115c0 11-9 20-20 20l-338 0c-11 0-20-9-20-20l0-115c0-8 4-15 10-20z m100 106c0 2 1 4 4 4l62 0c53 0 86-33 86-87l0-3c0-20-12-28-30-28-17 0-28 10-28 28l0 8c-1 13-11 25-25 26-7 0-13-6-13-13 0 0 0 0 0 0 1-13 9-23 21-26 6-2 10-7 9-13l0-5c0-2-1-3-3-3-26-1-48 20-48 46 0 0 0 0 0 0-2 18 11 33 29 34 2 0 3 0 5 0 25 0 46-21 46-46l0-10c0-5 2-7 7-7 5 0 8 2 8 7l0 6c0 42-22 65-64 65l-31 0c-7 1-13-4-14-10 0-1 0-2 0-3l0-33c0-42 22-65 64-65l54 0c7 0 12-4 13-10 0-1 0-2 0-2l0-5c0-2-2-4-5-4l-61 0c-54 0-86 33-86 86z m287-123l-162-126c-12-9-25-13-39-14l-7 0c-14 1-27 5-39 13l-162 127c-22 17-40 8-40-21l0-170 0-4 0-2c0-29 23-52 52-52l62 0c1 0 1 0 2 0l322 0c2 0 3 0 4 0 26 3 46 25 46 52l0 183c-2 23-19 30-39 14z"/>
<glyph glyph-name="emailsecurity-f" unicode="&#56;" d="M74 307l135-105c11-8 24-13 38-13l7 0c13 0 27 5 38 13l135 105c6 5 9 12 9 20l0 113c0 11-8 19-19 20l-334 0c-10 0-19-9-19-20l0-113c0-8 4-15 10-20z m102 71c0 7 6 13 14 13 19 1 37 10 50 24 3 3 7 5 10 5 4 0 8-2 11-5 13-14 31-23 50-24 8 0 13-6 13-13l0-50c0-38-38-68-60-82-4-3-9-4-14-4-4 0-9 1-13 4-57 32-61 82-61 82z m277-86l-160-124c-11-8-24-13-38-13l-7 0c-14 0-27 5-38 13l-160 124c-21 16-38 9-39-17l0-178c0-27 22-50 50-50l381 0c23 0 42 15 48 36 0 1 1 3 1 4 0 1 0 1 0 1 1 3 1 6 1 9l0 175c0 28-18 37-39 20z"/>
<glyph glyph-name="emailsend-f" unicode="&#57;" d="M71 314l135-105c6-5 12-8 19-10l0 145-49-61c-2-2-4-2-5 0l-9 7c-1 1-2 1-3 2-8 8-8 21 0 30l62 76c6 7 15 11 24 10 9 1 18-3 23-10 4-4 62-77 62-77 4-4 7-10 6-16-1-6-4-11-8-15l-9-7c-2-2-4-2-5 0l-49 61 0-146c8 2 17 5 24 11l135 105c6 4 9 12 9 19l0 113c0 11-8 20-19 20l-333 0c-11 0-19-9-19-20l0-113c0-7 3-15 9-19z m378-23l-159-124c-11-8-24-13-38-13l-7 0c-14 0-27 5-38 13l-159 124c-22 17-40 8-40-20l0-170 0-3c0-29 24-52 52-52l62 0c0 0 0 0 1 0l314 0c28 0 51 23 51 52l0 179c-2 23-19 29-39 14z"/>
<glyph glyph-name="employee-f" unicode="&#33;" d="M338 374c58 155-160 186-163 50 3-113 114-181 163-50z m-1-96c-8 3-17 2-25-3-15-9-32-13-49-13-18 0-35 5-51 14-7 4-16 5-24 2-51-18-90-56-95-114-2-19-2-37-1-56 1-14 7-26 18-34 72-54 168-66 251-30 5 2 22 9 26 10 49 18 51 59 51 59l0 21c3 75-42 122-101 144z m41-98c0-8-7-15-15-15l-55 0c-8 0-15 7-15 15l0 14c0 9 7 15 15 15l55 0c8 0 15-6 15-15z"/>
<glyph glyph-name="employeeexternal-f" unicode="&#34;" d="M359 243l0 0c0 0 0 0 0 1-13 15-30 26-49 33-4 1-8 1-12 0-2-1-3-1-4-2-2-1-4-2-7-3-8-4-18-6-28-6-10 0-19 2-28 6-2 1-4 2-7 3-1 1-2 1-3 2-4 1-9 1-13 0-19-7-36-18-49-33 0-1 0-1 0-1l0 0c-10-13-16-28-17-44-1-13-1-26-1-39 1-10 5-18 13-24 9-7 19-13 30-18l2 0c3-1 9-4 9-4 4-1 8-3 12-4 34-12 71-12 105 0 5 1 9 3 13 4 0 0 6 3 9 4l2 0c10 5 20 11 30 18 7 6 12 14 12 24 0 13 0 26-2 39-1 16-7 31-17 44z m-20-31c0-6-5-11-11-11l-37 0c-6 0-10 5-10 11l0 9c0 6 4 11 10 11l37 0c6 0 11-5 11-11z m-26 131c40 108-111 129-113 35 2-79 78-125 113-35z m-279 90c0-4 2-9 6-13 4-2 9-3 14-2 1 0 3 1 4 2 1 1 2 3 1 5 0 6-1 12-1 17l-1 9 27-27 14-14c0 0 0 0 0 0 5-5 13-6 19-1 1 1 1 2 2 2l3 3c0 0 0 0 0 0 2 2 3 6 1 8-1 1-2 2-3 3l-44 44 22-2c5-1 7-1 9 1 1 2 2 4 1 6l0 2c0 1 1 1 1 2 0 7-6 13-12 13-15 2-30 3-46 4-5 1-11-1-15-5-4-4-6-10-5-16 0-5 1-10 1-16l0-1c1-8 2-16 2-24z m368-24c0 0 0 0 0 0 5-5 14-4 18 1l15 15 26 26 0-9c-1-5-1-11-2-16 0-2 0-4 1-6 2-1 3-1 5-2 5-1 10 0 14 3 3 3 5 8 5 13 0 7 1 15 2 23l0 1c0 6 1 11 2 17 0 5-2 11-6 15-4 4-9 6-15 6-15-2-31-3-45-5-1 0-1 0-2 0-7-1-11-8-10-15l0-2c0-2 1-4 2-6 2-1 4-1 8-1l23 2-44-44c-1-1-2-2-3-2l0-1c-2-2-2-6 1-8l2-3c1 0 2-1 3-2z m82-306c0 1 0 1 0 2-2 7-8 11-15 10l-2 0c-2 0-4-1-6-2-2-2-1-4-1-8l2-23-44 44c-1 1-2 2-3 3l0 0c-2 2-6 2-8-1l-3-3c-1 0-1-1-2-2 0 0 0 0 0 0-5-6-4-14 1-19l14-14 27-27-9 1c-5 1-11 1-17 2-1 0-4 0-5-2-1-1-2-3-2-4-1-5 0-10 3-14 3-4 8-5 12-5 8-1 16-2 24-2l1 0c6-1 11-1 17-2 5-1 11 1 15 5 4 4 6 10 5 15-1 16-2 32-4 46z m-363 19c-1 1-1 2-2 3 0 0 0 0 0 0-6 5-14 4-19-1l-14-15-27-26 1 8c0 6 1 11 2 17 0 2-1 4-2 6-1 1-3 1-4 1-5 2-10 1-14-2-4-3-5-8-5-13-1-8-2-15-2-23l0-2c-1-5-2-11-2-16-1-6 1-11 5-16 4-4 10-5 15-5 16 1 32 3 46 4 0 0 1 0 2 1 6 1 11 8 10 14l0 3c0 2-1 4-2 5-2 2-4 2-8 1l-23-2 44 45c1 0 2 1 2 2l0 0c2 3 2 6 0 8l-3 3z"/>
<glyph glyph-name="employeeinternal-f" unicode="&#35;" d="M367 226l0 0c0 0-1 1-1 1-13 15-29 27-48 33-4 1-9 1-13 0-1 0-2-1-3-2-2-1-5-2-7-3-9-4-18-6-28-6-10 0-19 2-28 6-3 1-5 2-7 3-1 1-2 2-4 2-4 1-8 1-12 0-19-7-36-18-49-33 0 0-1-1-1-1l0 0c-9-13-15-28-16-44-1-13-1-26-1-39 1-9 5-18 13-24 9-7 19-13 30-18l2 0c2-1 9-3 9-3 4-2 8-4 12-5 34-11 71-11 105 0 5 1 9 3 13 5 0 0 6 2 9 3l2 0c10 5 20 11 30 18 7 6 12 15 12 24 0 13 0 26-2 39-1 16-7 31-17 44z m-21-31c0-6-4-11-10-11l-37 0c-6 0-11 5-11 11l0 9c0 6 5 11 11 11l37 0c6 0 10-5 10-11z m-26 132c40 107-110 128-113 34 2-78 79-125 113-34z m-234 88l-22 2c-4 1-7 1-8-1-2-2-2-4-2-6l0-2c0-1 0-1 0-2 0-7 5-13 12-13 14-1 30-3 45-4 6-1 11 1 15 5 4 4 6 10 6 16-1 5-1 11-2 16l0 1c-1 8-1 16-2 24 0 5-2 9-5 13-4 2-9 3-14 2-2 0-3-1-4-2-2-1-2-3-2-5 1-6 1-11 2-17l0-9-26 27-15 14c0 0 0 0 0 0-5 6-13 6-18 1-1-1-2-1-3-2l-3-3c0 0 0 0 0 0-2-2-2-6 0-8 1-1 2-2 2-3z m407 55l-2 3c-1 1-2 2-3 2 0 0 0 0 0 1-5 4-14 4-19-2l-14-14-27-27 1 9c1 6 1 11 2 17 0 2 0 4-2 5-1 1-2 2-4 2-5 1-10 0-14-2-3-4-5-8-5-13-1-8-1-16-2-24l0-1c-1-5-1-11-2-16 0-6 1-12 5-16 5-4 10-6 16-5 15 1 31 3 45 4 1 0 1 0 2 0 7 2 11 8 10 15l0 2c0 2-1 4-2 6-2 2-4 2-8 1l-23-2 44 44c1 1 2 2 3 3l0 0c2 3 1 6-1 8z m-18-408l-26 26 8 0c6-1 11-1 17-2 2 0 4 0 5 2 1 1 2 2 2 4 1 5 0 10-2 14-4 3-8 5-13 5-8 1-16 1-24 2l-1 0c-5 1-11 1-16 2-6 0-12-2-16-6-4-4-6-9-5-15 1-15 3-31 4-45 0-1 0-1 0-2 2-7 8-11 15-10l2 0c2 0 4 1 6 2 2 2 2 4 1 8l-2 23 44-44c1-1 2-2 3-3l0 0c2-2 6-2 8 1l3 3c1 0 1 1 2 2 0 0 0 0 0 0 5 6 5 14-1 19l-14 14z m-362 49c-16-1-31-3-45-4-1 0-2 0-2 0-7-2-11-8-10-15l0-2c0-2 0-4 2-6 2-2 4-2 8-1l22 2-43-44c-1-1-2-2-3-3l0 0c-2-2-2-6 1-8l2-3c1-1 2-2 3-2 0 0 0 0 0 0 5-5 14-5 19 1l14 14 26 27 0-9c-1-6-1-11-2-17 0-2 0-4 2-5 1-1 2-2 4-2 5-1 10 0 14 2 3 4 5 8 5 13 1 8 1 16 2 24l0 1c1 5 1 11 2 16 0 6-2 12-6 16-4 4-9 6-15 5z"/>
<glyph glyph-name="empties-f" unicode="&#36;" d="M322 192c-9-10-26-37-29-38-4-1-24 16-29 15-4-2-17-21-20-24-3-3-36 16-40 16-4 1-37-5-37-11l0-82c0-33 26-37 26-37l108 0c0 0 26 4 26 37l0 126c0 1-2 2-5-2z m-46 221l0 69c0 17-8 23-29 23-21 0-29-6-29-23l0-69c0-17-51-58-51-111l0-116c0-4 35 9 43 7 3 0 24-9 25-6 1 3 10 23 12 23 2 0 26-14 31-14 4 0 49 39 49 51l0 55c0 53-51 94-51 111z"/>
<glyph glyph-name="executiveassistant-f" unicode="&#37;" d="M440 265c39 105-109 126-112 34 3-77 78-123 111-34z m-247 40l-2 1c-2 1-5 0-7-2-7-12-21-47-32-74-1-1-1-1-2-1-1 0-1 1-2 2l-4 52c0 1 0 3 1 5l6 16c1 0 1 1 1 2-1 1-2 3-4 2-8-1-16-1-24 1-1 0-1 0-2 0-2-1-3-3-2-5l7-16c1-2 1-3 1-5l-4-52c0-1 0-1-1-2-1 0-2 0-2 1-11 28-25 63-32 74 0 1 0 1 0 1-2 2-5 2-7 1-32-13-57-38-61-76 0-12 0-25 0-38 1-9 5-17 13-23 49-37 113-44 170-20 13 6 27 13 40 20 7 6 11 14 12 23l0 19c1 48-26 79-63 94z m-6 72c40 106-108 127-111 34 2-77 78-123 111-34z m320-259c0 2-1 4-1 6 0 1 0 2-1 3 0 2-1 4-1 6-1 2-1 3-2 4 0 0 0 1 0 1-10 31-34 51-63 61-6 3-12 2-17-1-10-6-22-9-34-9-12 0-24 3-34 9-5 3-11 3-17 1-34-12-61-38-64-77-1-12-1-25-1-38 1-9 5-18 12-23 45-33 103-43 156-26 4 1 8 3 12 5 0 0 6 2 9 3 1 0 1 0 2 0 11 4 22 8 32 12 9 3 15 12 15 22 1 15-1 30-3 41z"/>
<glyph glyph-name="exit-f" unicode="&#38;" d="M382 457l-258 39c0 0-9 1-9-8l0-367c0-13 6-7 9-4 2 3 25 32 25 32 3 3 6 7 8 11 2 5 4 11 5 16l6 36c1 3 2 7 1 11 0 5-1 10-3 14l-13 39c-1 2-1 5-2 7 0 8 2 16 7 22 7 8 28 35 39 45 6 6 19 15 41 5 24-10 17-46 15-53l-13-62c-2-10-2-21 1-31 6-13 17-37 23-51 11-24 15-75 15-95 0-5 3-9 8-10l19-5 0 0 72-17c6-2 12 3 12 9l0 60c0 0 0 1 0 2l0 345c0 5-3 9-8 10z m-131-81c-16-1-30 12-31 28-1 17 12 31 29 32 0 0 0 0 0 0 16 0 30-13 31-29 1-17-12-31-29-31z m-35-221c-6 11-10 2-19-13-11-20-25-38-41-53-1-1-2-2-2-3 0-3 2-5 4-6l77-17c0 0 1 0 1 0 3 0 5 2 5 5 0 1 0 2 0 3-1 18-3 35-7 52-3 10-14 26-18 32z"/>
<glyph glyph-name="export-f" unicode="&#39;" d="M432 257l-27-27-3-2-7-8c-2-2-3-5-3-9l0-124c0-7-6-13-13-13l-287 0c-7 0-12 6-12 13l0 286c0 8 6 13 12 13l133 0c3 0 6 2 9 4l3 3 2 2 31 31c1 1 2 3 2 5 0 3-3 6-7 6l-198 0c-21 0-38-17-38-38l0-339c0-20 16-37 36-37l339 0c21 0 38 17 38 38l0 191c0 2 0 4-2 5-2 2-6 2-8 0z m50 215c-7 7-16 11-26 10l-108-11c-1 0-2 0-3 0-12-2-21-14-19-26l1-13c1-3 2-4 5-3l85 8-116-115-8-8-22-22c0 0-18-18-30-29-5-5-5-13 0-18l14-14c4-4 13-4 18 0 11 12 29 30 29 30l22 22 7 7 116 117-8-85c-1-3 0-5 3-5l13-1c6-1 13 1 18 5 5 4 8 11 8 17 0 0 11 101 11 108 1 10-3 19-11 26z"/>
<glyph glyph-name="eyeview-f" unicode="&#40;" d="M498 283c-150 142-314 131-437 25-12-10-23-22-31-33-5-8-4-19 2-26 6-8 15-19 23-27 1-2 3-4 4-4 62-57 134-94 227-85 85 8 153 51 212 108 0 1 0 1 0 1 11 12 11 30 0 41z m-232-133c-60 0-109 49-109 110 0 60 49 110 109 110 61 0 110-50 110-110 0-61-49-110-110-110z m51 121c-1 2-4 2-6 1-6-5-13-6-19-5-9 2-16 9-18 18-2 7 0 14 5 19 0 1 0 1 1 2 0 3-2 5-4 6-2 0-4 0-6 0l-4 0c-8 1-17-1-24-6-18-9-28-27-28-46 0-29 23-53 52-52l1 0c3 0 6 0 9 0 28 5 47 33 42 61 0 1 0 2-1 2z"/>
<glyph glyph-name="factory-f" unicode="&#41;" d="M496 277l-110 81c-5 4-10 2-10-5l0-59c0-7-5-9-10-5l-95 69c-5 4-10 2-10-5l0-68c0-7-5-9-10-5l-108 78c-5 4-10 2-10-5l0-72c0-1 0-3 0-4-1-6-7-9-12-8-6 1-10 6-8 12l-13 173c0 6-5 10-10 10l-47 0c-6 0-11-4-11-10l0-392c0-7 6-13 13-13l449 0c7 0 13 6 13 13l0 197c0 7-4 15-11 18z"/>
<glyph glyph-name="family-f" unicode="&#42;" d="M141 324c27 73-75 87-76 24 1-53 53-84 76-24z m301 0c27 73-74 87-76 24 2-53 53-85 76-24z m44-97c-1 11-5 21-11 30l-1 1c-8 10-20 17-32 22-3 1-6 1-9 0-1-1-2-1-2-1-2-1-3-2-5-3-6-2-12-4-19-4-7 0-13 2-19 4-2 1-3 2-5 3 0 0-1 0-2 1-3 1-6 1-9 0-12-5-23-12-32-23 0 0 0 0-1 0-6-9-10-19-11-30 0-8-1-17 0-26 0-6 3-12 8-16 6-4 13-8 20-12l1 0c3-1 7-2 7-2 2-1 5-2 8-3 23-8 47-8 70 0 3 1 6 2 9 3 0 0 4 1 6 2l1 0c7 4 14 8 20 12 5 4 8 10 8 16 1 9 1 18 0 26z m-313 30c0 0 0 0-1 0-8 11-19 18-32 23-3 1-6 1-9 0-1-1-1-1-2-1-1-1-3-2-4-3-6-2-13-4-20-4-8 0-16 3-23 7-1 0-2 0-2 1-3 1-6 1-9 0-13-5-24-12-33-23 0 0 0 0 0 0-3-4-5-8-7-13-1-1-2-3-3-6-2-6-4-17-5-34 0-10 5-19 14-23 4-2 9-4 14-6 4-2 11-4 11-4 3-1 6-2 9-3 22-8 47-8 70 0 3 1 6 2 8 3 0 0 4 1 6 2l2 0c7 4 13 8 20 12 5 4 8 10 8 16 0 9 0 18-1 26-1 11-5 21-11 30z m107-22c18 49-50 58-51 15 1-35 36-57 51-15z m22-55l0 0c-6 7-14 12-23 15-1 1-4 1-5 0-1 0-2 0-2 0-1-1-2-1-3-2-4-2-9-3-13-3-6 0-11 2-16 5 0 0-1 0-2 0-1 1-4 1-5 0-9-3-17-8-23-15l0 0c-4-6-7-13-7-20-1-6-1-12 0-18 0-4 2-8 5-11 4-3 9-6 14-8l1 0c1 0 4-1 4-1 2-1 3-2 5-2 16-6 33-6 48 0 2 0 4 1 6 2 0 0 3 1 4 1l1 0c5 2 9 5 14 8 3 3 5 7 5 11 0 6 0 12-1 18 0 7-3 14-7 20z"/>
<glyph glyph-name="fastbackward-f" unicode="&#43;" d="M159 223l-47 40 47 40 116 98c4 3 5 6 2 10l-14 17c-7 10-18 16-30 17-11 1-23-3-31-11l-148-124c-15-13-24-28-24-47 0-18 11-35 25-47l148-123c1-2 3-3 5-5 19-12 43-8 56 11l14 17c3 4 2 7-2 10l-117 97z m336-98l-117 96-47 40 47 40 116 98c4 3 5 7 2 10l-15 17c-7 10-17 16-29 17-12 1-23-3-32-11l-147-124c-15-13-24-28-24-46 0-19 11-36 24-48l148-123c2-2 4-3 6-5 18-12 43-7 55 11l15 17c3 4 2 7-2 11z"/>
<glyph glyph-name="fastforward-f" unicode="&#44;" d="M469 310l-148 123c-2 1-4 3-6 4-18 13-43 8-55-10l-14-18c-3-3-2-7 1-10l117-97 48-39-47-41-117-97c-4-4-4-7-1-11l14-17c7-9 18-15 29-17 12-1 23 4 32 12l147 123c16 14 24 29 24 47 0 18-11 35-24 47z m-194-46c0 18-11 35-25 47l-148 123c-1 2-3 3-5 5-19 12-43 8-56-11l-14-17c-3-4-2-7 2-10l117-97 47-40-47-40-117-98c-3-3-4-6-1-10l14-17c7-10 18-16 30-17 11-1 23 3 31 11l148 124c15 13 24 28 24 47z"/>
<glyph glyph-name="favorite-f" unicode="&#45;" d="M489 301c10 9 4 26-9 28l-130 22c-5 0-10 4-12 8l-61 117c-6 13-23 13-30 0l-60-117c-2-4-7-8-12-8l-130-22c-14-2-19-19-9-28l92-94c4-4 6-9 5-14l-20-130c-2-14 12-24 24-18l118 59c4 2 10 2 15 0l117-59c13-6 27 4 25 18l-20 130c-1 5 1 10 5 14z"/>
<glyph glyph-name="fax-f" unicode="&#46;" d="M112 316l303 0c8 0 15 6 15 14l0 131c0 25-20 45-46 46l-241 0c-25 0-46-21-46-46l0-131c0-8 7-14 15-14z m263 41l-216 0c-10 0-17 7-17 17 0 9 7 17 17 17l216 0c9 0 17-8 17-17 0-10-8-17-17-17z m-218 101l216 0c9 0 17-8 17-17 0-10-7-17-17-17l-216 0c-9 0-17 7-17 17 0 9 7 17 17 17z m287-178l-370 0c-19 0-34-11-37-24l0-196c0-19 16-34 34-34l42 0c1 0 2 0 2 0l330 0c9 0 17 3 24 7 6 5 11 12 12 20 1 0 1 1 1 1l0 198c0 15-17 28-37 28z m-76-174c-7 1-12 3-18 4-31 8-32 8-30 40 1 11-6 20-16 22-26 7-54 8-80 3-24-5-26-9-25-35 5-16-5-24-21-27-10-2-20-6-30-7-20-4-34 8-34 28 0 24 12 46 32 58 61 41 165 41 226 0 18-12 29-31 32-53 3-23-13-38-36-33z"/>
<glyph glyph-name="filter-f" unicode="&#47;" d="M448 498l-400 0c-34 0-52-41-28-66l172-183c-1-1-1-3-1-5l0-218c0-18 20-30 36-20l65 40c7 4 11 12 11 20l0 181 174 185c24 25 6 67-29 67z"/>
<glyph glyph-name="firewall-f" unicode="&#58;" d="M453 314c-1 14-4 57-7 85-1 7-7 12-14 14-4 0-7 1-11 1-1 0-1 1-1 1-6 1-13 2-19 4 0 0-1 0-1 0-51 13-87 36-120 58l-19 14c-6 3-13 3-18 0l-19-14c-40-30-85-50-133-61l-28-6c-7-1-12-8-12-15l0-120c0-117 75-220 186-256l10-4c3-1 7-1 10 0l10 4c111 36 186 139 186 256l0 33c0 2 0 4 0 6z m-200-253c-6-1-10 0-13 4-24 42 68 65 56 129-1 3-2 9-4 15-1 1-2 3-3 3-3 1-6-1-7-3-18-69-109-55-66-132 1-1 1-3 0-5-1-2-4-3-6-2-19 9-48 27-57 52-48 144 202 78 87 250-1 1-2 4 0 5 1 3 4 3 6 2 168-99 170-293 7-318z"/>
<glyph glyph-name="firstaidkit-f" unicode="&#59;" d="M445 345l-267 0c-6 0-12 5-12 12l0 75c0 6 6 11 12 11l137 0c6 0 12-5 12-11l0-27c0-7 5-12 11-12l23 0c7 0 12 5 12 12l0 58c0 16-14 29-30 29l-199 0c-17 0-30-13-30-29l0-107c0-6-5-11-11-11l-46 0c-18 0-32-14-34-32l0-253c0-19 15-34 34-34l388 0c19 0 34 15 34 34l0 254c-2 18-16 31-34 31z m-107-164c0-9-7-16-15-16l-30 0c-8 0-15-7-15-15l0-30c0-9-7-16-16-16l-22 0c-8 0-15 7-15 16l0 30c0 8-7 15-16 15l-30 0c-8 0-15 7-15 16l0 22c0 8 7 15 15 15l30 0c9 0 15 7 16 16l0 30c0 8 7 15 15 15l22 0c9 0 15-7 16-15l0-30c0-9 7-16 15-16l30 0c8 0 15-7 15-15z"/>
<glyph glyph-name="flexible-f" unicode="&#60;" d="M173 299c0 2-1 4-3 5l-128 63c-3 1-5 0-6-2-5-10-26-57-32-88 0-1 0-1 0-2-3-19-10-71 11-91 5-3 10-5 16-7 10-3 87-22 142 122z m318 31c-30 14-125 61-151 73-5 2-11 3-16 2-15-4-29-10-42-18-25-15-63-41-86-96-19-43-37-72-55-91-14-17-32-30-52-39-1 0-1 0-1-1-1-1 0-2 1-3l142-55c7-3 15-3 22 1 19 11 63 41 105 137 0 0 34 84 132 86 0 0 1 1 2 1 0 2 0 3-1 3z"/>
<glyph glyph-name="foodcourt-f" unicode="&#61;" d="M237 477c-5-3-12-3-16 1-76 62-179-15-178-106 0-43 25-97 60-116 7-4 12-12 12-20l0-102c0-4 2-8 5-11 5-4 11-7 18-6l218 0c6 0 12 2 16 5 5 3 7 8 8 14l0 72c0 7 7 15 10 18 33 24 60 92 60 136 2 104-128 178-213 115z m-107-404l244 0c9 0 17-8 17-17l0-36c0-9-8-17-17-17l-244 0c-9 0-17 8-17 17l0 36c0 9 8 17 17 17z"/>
<glyph glyph-name="game-f" unicode="&#62;" d="M463 371c-22 39-52 58-87 58-38 0-71-25-71-25-7-6-16-9-25-9l-26 0c-9 0-17 3-25 8-1 1-33 26-71 26-35 0-64-20-87-58-37-62-43-128-43-172 0 0-1-22 1-42 1-18 9-34 22-46 6-5 13-8 20-7 66 9 94 85 96 87 6 7 14 11 23 11l152 0c9 0 17-4 23-11 3-3 62-87 89-89l5 0c16 0 36 8 42 45 0 2 25 118-38 224z m-247-83l-38 0 0-39c0-11-8-19-19-19 0 0 0 0 0 0-10 0-19 8-19 19l0 39-38 0c-10 0-19 7-20 17-1 11 8 21 19 21l39 0 0 38c0 10 7 19 17 20 11 1 21-8 21-19l0-39 39 0c11 0 20-10 19-21-1-10-10-17-20-17z m171-19c0-18-18-33-37-29-11 3-20 12-22 22-6 24 17 44 41 35 11-4 18-16 18-28z m0 75c0-19-18-34-37-29-11 3-20 11-22 22-6 24 17 44 41 35 11-4 18-16 18-28z m65-41c-2-13-12-23-25-25-20-3-37 14-34 35 2 12 12 22 25 24 20 4 37-14 34-34z"/>
<glyph glyph-name="garage-f" unicode="&#63;" d="M353 212c-4 4-11 4-16 0l-51-51c0 0 0 0 0 0-4-5-4-12 0-16l119-115c1-1 5-4 8-7 14-8 24 1 24 1l39 39c7 11 5 25-4 34l-119 115z m-182 31c6 3 14 1 18-4 4-3 9-3 12 0l55 55c4 3 4 8 0 12-5 5-6 12-4 18 6 22 7 45 2 67-17 66-84 107-150 90-1 0-2-1-3-1-3-3-3-7 0-10l56-56c15-16 15-42 0-58l-18-18c-16-16-42-16-58 0l-56 56c-1 1-1 1-3 2-3 1-7-1-8-5-6-22-5-45 2-66 20-65 89-102 155-82z m328 194l-18 18c-17 17-44 17-60 0l-110-110c-14-14-17-35-7-52l-147-147c-3-3-7-6-11-8l-35-15c-4-2-8-5-10-9l-36-56c-3-5-3-13 2-18l17-17c5-5 12-5 18-2l56 36c4 2 7 6 9 10l15 36c2 4 5 7 8 10l147 147c16-10 38-8 52 6l110 111c17 16 17 43 0 60z"/>
<glyph glyph-name="garbagebin-f" unicode="&#64;" d="M422 452c-19 4-99 18-99 18-2 0-3 4-5 9-11 24-17 32-37 32l-31 0c-20 0-26-8-36-32-3-5-4-9-5-9 0 0-81-14-100-18-30-7-25-52 0-52l313 0c26 0 30 46 0 52z m-8-78l-56 0c-7 0-8-8-8-8l-14-239c-2-36-46-31-45 1l8 237c0 0-1 9-8 9l-51 0c-7 0-8-9-8-9l8-237c1-32-44-37-45-1l-14 239c0 0-1 8-8 8l-56 0c-10 0-8-8-8-8 0 0 22-247 28-290 5-37 45-44 128-44 4 0 7 0 11 0l4 0c1 0 3 0 4 0 11 0 22 0 31 1 12 1 23 2 33 4 2 0 5 1 7 1 3 0 6 1 9 1 17 4 31 18 32 35l2 21 0 3c6 66 24 268 24 268 0 0 2 8-8 8z"/>
<glyph glyph-name="gearwheelsmall-f" unicode="&#91;" d="M503 304c-1 2-3 4-5 5-15 3-30 5-45 6-3 0-6 2-7 4l-9 21c0 3 0 6 3 8 9 12 18 24 26 36 2 3 2 5 0 8-5 7-7 14-31 39-25 24-32 26-39 31-2 2-5 2-8 0-12-8-24-17-35-26-3-3-6-4-9-3l-20 9c-3 1-4 4-4 7-2 15-4 30-7 45-1 2-2 4-5 5-9 2-9 5-50 5-41 0-41-3-50-5-2-1-4-3-5-6-2-14-5-30-6-44 0-3-2-6-4-8l-21-8c-3-1-6 0-8 2-11 10-23 19-36 27-2 1-5 1-7 0-15-8-28-19-39-31-12-12-23-25-32-39-1-3-1-5 0-8 9-12 18-24 27-36 2-2 3-5 3-8l-9-21c-1-2-4-4-7-4-15-1-30-3-45-6-2-1-4-3-5-6-3-16-5-33-5-49 0-17 1-34 5-50 1-3 3-5 5-6 15-2 30-5 45-6 3 0 5-2 7-4l9-21c0-3-1-6-3-8-9-11-18-24-27-36-1-2-1-5 0-8 1 0 1-1 1-1 18-27 42-51 70-69 2-1 5-1 7 0 12 8 24 17 36 27 2 2 5 3 8 2l21-8c2-2 4-5 4-8 1-15 3-30 6-44 1-3 3-5 5-6 3 0 5-1 8-1 4-1 7-1 11-2 3 0 5 0 8-1 8 0 16-1 23-1 3 0 6 0 8 0 4 0 7 1 11 1 4 0 8 0 13 1 6 1 12 2 18 3 3 1 5 3 6 6 2 14 4 29 6 44 0 3 2 6 4 8l21 8c3 1 6 0 8-2 11-10 23-19 36-27 2-2 5-2 7 0 14 9 27 20 39 31 12 12 23 25 32 39 1 3 1 5 0 8-9 12-18 24-27 36-2 2-3 5-3 8l9 21c1 2 4 4 7 4 15 1 30 3 45 6 2 1 4 3 5 5 2 9 5 11 5 50 0 40-3 42-5 50z m-245-155c-58 0-105 47-105 105 0 58 48 105 106 105 58 0 105-47 104-106 0-58-47-105-105-104z"/>
<glyph glyph-name="gents-f" unicode="&#93;" d="M337 26c-4 31-23 154-22 190 0 24 5 56 7 112 2 39-32 58-65 57-33 1-66-18-64-57 2-56 7-88 7-112 1-36-18-159-22-190-3-27 33-30 40-7 5 19 19 117 22 136 1 3 5 13 13 16 0 0 0 0 1 0 1 0 2 1 3 1 0 0 0 0 0 0 2 0 4-1 5-1 0 0 0 0 0 0 2-1 3-1 4-2 3-3 7-7 9-15 3-19 17-116 22-135 6-23 43-20 40 7z m-82 391c19-2 36 12 38 31 0 0 0 0 0 0 1 19-13 36-32 38-19 2-36-12-37-31-2-20 12-37 31-38z"/>
<glyph glyph-name="glasses-f" unicode="&#94;" d="M453 61c-19 0-51-1-51 28l0 121c0 63 146 47 71 238-4 10-15 17-26 16l-132 0c-15 0-21-2-27-16-75-191 71-175 71-238l0-121c0-29-32-28-50-28-26 0-25-42 0-42l72 0c0 0 0 0 0 0l67 0c31 3 29 21 29 21-1 19-24 21-24 21z m-252 232l-174 0c-1 0-1 0-2 0-6 0-11-6-10-13 5-46 22-192 26-219 3-17 15-41 64-41l18 0c49 0 61 24 64 41 4 27 21 173 26 219 0 0 0 1 0 1 0 7-5 12-12 12z"/>
<glyph glyph-name="group-f" unicode="&#95;" d="M306 276l0 0c38 102-106 123-108 33 3-74 75-119 108-33z m-139 122c38 102-105 123-107 33 2-74 75-119 107-33z m330-161c-2 15-6 29-6 32-1 2-1 3-1 4-9 31-33 51-62 62-6 2-13 1-18-2-5-4-11-6-18-7-16-4-32-1-46 8-4 2-8 2-13 2 7-20 6-44-3-69-4-10-10-21-16-30 36-13 62-38 74-69 19 1 37 6 55 13 1 1 7 4 12 6 9 5 19 11 27 16 12 7 18 21 15 34z m-192-24c-5 2-11 1-16-2-10-5-21-8-33-8-11 0-23 3-33 9-5 3-11 3-16 1-33-12-59-37-63-74 0-13-1-25 0-37 0-9 5-17 12-23 47-35 110-43 164-19 14 5 27 12 39 19 7 6 12 14 12 23 0 2 0 15 0 17l0 0c2 49-28 80-66 94z m-107 23c-16 21-24 46-25 72l0 2c0 7 1 14 3 21-3 1-6 3-10 4-5 2-11 1-16-2-10-5-21-9-32-8-12 0-24 3-34 9-5 2-10 3-16 1-33-12-59-37-62-75-1-12-1-24-1-36 1-9 5-18 12-23 29-22 64-33 99-33 3 0 6 0 9 0 11 31 37 55 72 68z m230 162c38 102-105 123-107 33 2-74 75-119 107-33z"/>
<glyph glyph-name="health-f" unicode="&#96;" d="M448 339l-268 4c-6 0-11 6-11 12l1 75c0 7 5 12 12 12l137-3c7 0 12-5 12-11l-1-27c0-7 5-12 11-12l24 0c6-1 11 5 12 11l0 58c1 16-12 30-29 30l-200 3c-16 1-30-13-30-29l-2-106c0-7-5-12-11-12l-46 1c-18 0-33-14-35-32l-4-253c0-19 15-35 34-35l389-6c16 0 29 9 34 23 1 3 1 7 1 10l4 252c0 19-15 35-34 35z m-164-235c-8-7-16-14-24-21-8-6-11-7-20 0-9 7-17 15-25 22-37 33-68 61-68 103 1 31 20 63 54 65 25 1 36-12 51-29 16 18 31 32 57 27l0 0c31-6 47-37 46-66 0-43-32-69-71-101z"/>
<glyph glyph-name="heart-f" unicode="&#123;" d="M491 365c-5 24-11 40-13 45 0 0-1 1-1 1-1 3-3 6-4 9-1 1-1 2-2 3-25 45-73 61-73 61-2 1-11 4-14 4-60 11-96-22-132-64-35 40-62 70-120 65-79-6-122-80-122-152 0-100 73-163 160-240 19-17 39-36 59-51 21-16 29-13 47 3 19 15 37 32 56 48 88 77 161 140 161 239 0 10-1 20-2 29z"/>
<glyph glyph-name="heartbeat-f" unicode="&#124;" d="M486 419c-1 3-2 6-4 8 0 0-2 4-3 6-30 50-83 64-83 64-3 0-6 1-8 1-63 12-99-22-137-66-36 42-64 73-125 68-81-7-126-83-126-159 0-103 76-168 168-248 19-16 40-36 61-52 21-17 29-13 48 2 20 16 39 34 58 50 92 80 168 145 168 248 0 27-6 54-17 78z m-27-139c-2-8-6-16-9-24-2-3-6-6-10-6l-153 0c-8 0-15 5-19 12l-10 20-23-85c-2-8-9-15-18-16-1 0-2 0-3 0-9 0-16 4-20 12l-28 58-103 0c-4 0-8 2-10 6-3 7-6 15-9 23 0 1 0 2 0 3 0 6 5 11 10 11l126 0c8 0 15-5 19-12l9-19 24 84c2 11 13 18 24 16 7-2 13-6 16-13l28-56 149 0c1 0 2 0 4-1 5-2 8-8 6-13z"/>
<glyph glyph-name="helpquery-f" unicode="&#125;" d="M304 80c0 46-27 72-71 72l-45 0c-7 0-11-4-11-13l0-97c0-7 6-13 13-13l102 0c7 0 13 6 13 13 0 6 0 12 0 12l0 26z m-93 420c-118 0-204-40-204-145 0-7 4-11 12-11l94 0c14 0 18 3 25 15 13 21 27 24 61 24 52 0 148-18 148-57 0-18-19-26-58-26-26 1-52 3-78 8-6 1-12 1-17 1-2 1-3 1-4 0-8 0-14-8-13-16l0-83c0-6 4-12 10-13 31-7 62-11 94-11 112 0 203 31 202 132 0 111-135 182-272 182z"/>
<glyph glyph-name="home-f" unicode="&#126;" d="M486 298l-218 181c-12 10-30 10-42 0l-219-181c-2-2-4-5-4-8 0-6 5-11 11-11l35 0c9 0 17-8 17-16l0-219c0-8 5-14 13-16 1 0 2 0 3 0l92 0c9 0 16 7 16 16l0 152c0 9 7 16 16 16l91 0c9 0 16-7 16-16l0-152c0-9 7-16 16-16l41 0c0 0 2 0 4-1l37 0c10 0 17 8 17 17l0 151 0 0 0 68c0 8 8 16 17 16l35 0c3 0 6 1 8 4 4 4 3 11-1 15z"/>
<glyph glyph-name="hub-f" unicode="&#92;" d="M467 170c-4 15-14 28-27 36-3 2-5 3-8 4-19 7-40 5-56-8-1-1-3-2-5-2 0 0 0 0 0 0-2 0-4 1-5 2l-34 19c-3 2-5 6-4 10 2 11 2 22 0 32-1 4 1 8 4 10l33 20 1 0c3 2 7 2 10 0 18-15 44-17 64-5 13 8 23 21 27 36 2 9 2 18 0 26 0 1 0 2 0 2 0 1 0 1 0 2-2 5-4 10-6 15 0 0-1 0-1 1-2 4-5 8-9 11-18 18-46 23-69 9-20-12-31-35-28-58 0-4-2-8-5-9l-34-20c-4-2-8-2-11 1-8 7-17 12-27 16-3 1-6 5-6 9l0 39c0 4 2 7 6 9 1 0 2 1 2 1 1 1 2 1 3 2 0 0 1 0 1 0 11 6 19 16 24 28 2 4 4 9 4 14 0 0 0 1 0 1 1 1 1 2 1 3 0 1 0 2 0 4 0 0 0 0 0 0 0 12-3 24-10 34l-1 0c-6 8-14 15-24 19-26 11-54 2-70-19l-1 0c-2-3-3-6-5-9-6-14-6-28-2-41 0-1 0-2 0-2 1-1 1-2 1-3 1-2 2-3 2-5 0 0 1 0 1 0 3-7 8-13 14-18 0-1 1-1 2-2 1-1 2-1 2-2 1 0 1 0 1 0 3-2 6-4 10-5 3-2 5-5 5-9l0-40c0-4-2-8-6-9-10-3-19-8-27-15-2-3-5-3-8-3-1 0-2 1-2 1l-34 20c-3 2-5 6-5 9 3 24-8 47-28 59-1 0-1 0-1 0-2 1-4 2-6 3 0 0-1 0-1 1-2 0-4 1-5 1-1 1-2 1-3 1-1 0-3 1-4 1-1 0-2 0-3 0-2 1-4 1-6 1 0 0 0 0 0 0-1 0-2 0-3 0-1 0-2-1-3-1-1 0-2 0-3 0-2 0-3-1-5-1-1 0-1 0-2 0-2-1-4-2-6-2-1-1-1-1-2-1-1-1-3-2-4-2-1-1-1-1-2-2-1 0-3-1-4-2-1-1-2-2-3-3-1-1-2-2-3-2-1-1-2-2-3-3 0-1-1-1-1-2-2-2-4-5-6-9-8-13-10-29-6-44 4-15 13-28 27-36 2-1 5-3 8-4 18-7 40-4 56 8 1 1 3 2 4 2 1 0 1 0 1 0 2 0 3 0 5-1l34-20c3-2 5-6 4-10-2-11-2-21 0-32 1-4-1-8-4-10l-33-19-1-1c-3-2-7-2-10 1-19 14-44 16-64 4-13-8-23-21-27-36-2-8-2-18-1-26 1-1 1-2 1-2 0-1 0-1 0-2 1-5 3-10 6-14 0-1 0-1 1-1 2-5 5-8 9-12 17-18 46-22 69-9 20 12 31 35 28 58 0 4 2 8 5 10l34 20c3 2 8 1 11-2 7-7 16-12 26-15 4-2 7-5 7-9l0-40c0-4-3-7-6-9-1 0-2 0-3-1-1 0-2-1-3-1 0 0 0 0 0-1-11-6-20-16-25-27-12-30 2-64 31-76 30-12 63 1 76 31 11 27 0 58-25 72-2 1-4 3-6 4-3 1-6 4-6 8l0 40c0 4 3 8 7 9 10 3 19 9 26 16 3 2 6 2 8 2 1 0 2-1 3-1l34-20c3-2 5-6 5-9-3-24 8-46 28-59 0 0 1 0 1 0 2-1 4-2 6-3 0 0 0 0 1 0 2-1 3-2 5-2 1-1 2-1 2-1 2 0 3-1 5-1 1 0 1 0 2 0 2 0 4-1 6-1 1 0 1 0 1 0 1 0 2 1 2 1 2 0 3 0 4 0 1 0 2 0 3 0 2 0 3 1 5 1 0 0 1 0 2 1 2 0 4 1 5 2 1 0 2 0 3 1 1 0 2 1 4 2 0 0 1 0 2 1 1 1 2 2 4 3 1 0 2 1 3 2 1 1 2 2 3 3 1 1 2 2 3 3 0 0 0 0 1 1 2 3 4 6 6 9 8 13 10 29 6 44z m-204 36c-2 0-5-1-7-1-24 0-43 18-43 42 0 0 0 0 0 0 0 20 14 37 32 41 3 1 5 1 8 1 23 1 43-18 43-41 0 0 0-1 0-1 0-20-14-37-33-41z"/>
<glyph glyph-name="idbadge-f" unicode="&#57344;" d="M238 357l66 0c0 0 1 0 1 0 3 1 5 3 5 7l0 49c0 0 0 0 0 1-1 21-18 38-40 37-21 0-39-17-39-38l0-49c0 0 0-1 0-1 0-3 3-6 7-6z m216 27l-101 0c-4 0-8-3-8-8l0-19c0 0 0 0 0-1 0-17-15-31-33-31l-81 0c-18 0-32 14-32 32l0 19c0 4-3 8-7 8l-122 0c-26 0-48-21-48-48l0-124c0 0 1-21 0-25 0-2-1-4-2-5l0-62c0-27 22-49 49-49l385 0c26 0 48 22 48 49l0 218c-2 26-23 46-48 46z m-210-243c-1-3-13-29-84-29-72 0-82 26-83 29l0 2c1 8 5 33 17 39 6 4 26 16 38 22-13 10-20 25-19 41 0 28 4 55 47 55 43 0 46-27 46-55 1-16-6-31-17-41 10-7 31-17 38-22 8-5 13-18 17-39z m190 11c0-6-5-11-12-11l-98 0c-7 0-12 5-12 11l0 3c0 7 5 12 12 12l98 0c7 0 12-5 12-12z m0 56c0-6-5-11-12-11l-98 0c-7 0-12 5-12 11l0 3c0 7 5 12 12 12l98 0c7 0 12-5 12-12z m0 56c0-6-5-11-12-11l-98 0c-7 0-12 5-12 11l0 3c0 7 5 12 12 12l98 0c7 0 12-5 12-12z"/>
<glyph glyph-name="idea-f" unicode="&#57345;" d="M204 89l113 0c6 0 10-4 10-10l0-5c0-6-4-10-10-10l-113 0c-6 0-10 4-10 10l0 5c0 6 4 10 10 10z m110-50l-110 0c-5 0-10-5-10-10l0-5c0-5 3-9 7-10l116 0c4 1 7 5 7 10l0 5c0 5-4 10-10 10z m-57 466c-78-2-141-67-139-145 0-86 76-118 76-225l0-8c0-8 6-15 15-15l102 0c9 0 15 7 15 15l0 8c0 107 77 139 77 225 0 1 0 3 0 5-2 79-67 141-146 140z"/>
<glyph glyph-name="ids-f" unicode="&#57346;" d="M242 353l25-5c0-1 0-3 0-4 0-2 2-4 4-4l74 0c2 0 4 2 4 4 0 1 0 3 0 4l25 5c4 1 6 4 6 8-1 4-5 6-8 6l-27-5c-7 13-21 22-36 22l-2 0c-15 0-29-9-36-22l-26 5c-4 0-8-2-8-6-1-4 1-7 5-8z m107-52l25 0c4 0 7 3 7 7 0 4-3 7-7 7l-25 0 0 6c0 3-2 5-5 5l-72 0c-2 0-5-2-5-5l0-6-25 0c-4 0-7-3-7-7 0-3 3-7 7-7l26 0 0-25c0-1 0-3 0-4l-26-5 0 0c-4-1-6-4-5-8 0-3 3-6 6-6 1 0 1 0 1 0l27 5c4-7 9-13 16-17 9-5 33-5 42-1 7 4 13 11 16 18l27-5c0 0 1 0 1 0 3 0 6 3 7 6 1 4-2 7-6 8l-25 5c0 1 0 2 0 4l0 25z m-41 196c-102 0-185-84-185-186 0-103 83-186 185-186 103 0 186 83 186 186 0 102-83 186-186 186z m0-321c-74 0-134 60-134 135 0 74 60 134 134 134 75 0 135-60 135-134 0-75-60-135-135-135z m-128-35c-13 9-24 20-34 33-1 0-1 0-1 0-4 4-11 4-16 0l-81-81c0 0-1-1-2-2l-18-19c-3-3-3-8 0-12l39-38c3-4 8-4 12 0l57 58c0 0 0 0 1 0l44 44c0 0 1 1 1 1 4 5 3 12-2 16z"/>
<glyph glyph-name="important-f" unicode="&#57347;" d="M217 146l78 0c7 0 14 6 14 14l14 291c-1 38-52 37-60 37l-60 0c0 0-1 0-1 0-7-1-13-7-13-14l14-314c0-8 7-14 14-14z m-5-40l87 0c7 0 13-6 13-13l0-55c0-7-6-12-13-12l-87 0c-6 0-12 5-12 12l0 55c0 7 6 13 12 13z"/>
<glyph glyph-name="information-f" unicode="&#57348;" d="M299 350l-87 0c-8 0-14-7-14-15l0-320c0-2 0-3 1-5 2-5 7-9 13-9l86 0c8 0 14 7 14 15l0 323c-1 6-7 11-13 11z m-3 116c-12 11-28 16-48 16l-40 0c-7 0-10-3-10-11l0-70c0-7 3-11 10-11l95 0c5 0 8 2 10 6l0 34c-2 15-8 27-17 36z"/>
<glyph glyph-name="ips-f" unicode="&#57349;" d="M288 276c1 6 1 13 0 19-5 41-43 69-83 64-41-6-69-43-64-83 5-41 43-70 83-64 33 4 60 30 64 64z m-73-38c-27 0-48 21-48 47 0 27 21 48 48 48 26 0 47-21 47-48 0-26-21-47-47-47z m80-14c0 0 0 0-1 0-1 2-4 1-6 0-6-7-13-14-20-18 0 0 0-1-1-1-2-1-2-4 0-6l59-68c2-2 5-3 7-1 8 6 15 13 21 20 1 2 1 5 0 6l-59 68z m166 78l0 1c0 36-1 69-1 86 0 7-5 12-12 13-1 0-3 0-4 0 0 0 0 0 0 0 0 0-1 0-1 0-43 5-81 23-81 23-29 12-53 27-75 43l-21 14c-5 4-12 4-17 0l-20-14c-40-30-86-51-134-62l-28-6c-7-1-12-8-12-15l0-122c0-118 76-222 188-259l10-3c4-1 7-1 10 0l11 3c112 37 187 141 187 259l0 34c0 2 0 3 0 5z m-50-39c0-87-51-166-130-202-5-2-13-5-18-7-3-1-7-1-10 0-5 2-11 4-16 6-80 36-132 115-132 203l0 86c0 4 4 9 8 10 48 11 92 31 132 59 3 1 5 3 8 5 3 2 8 2 11 0 3-2 6-5 9-6 39-27 83-47 130-58 5-1 8-5 8-10l0-86z"/>
<glyph glyph-name="itshop-f" unicode="&#57350;" d="M459 490l-423 0c-15 0-27-12-27-27l0-47c1-8 1-16 1-16l0-206c0-15 12-27 28-27l158 0c0 0 1 0 1 0 7-1 12-7 11-13l-3-29c0-6-4-10-10-11l-38-4c-6-1-11-4-15-8-2-2-4-4-5-6 0-1-1-1-1-2-5-11-6-23-6-35 1-4 4-8 9-8l219 0c4 0 7 4 8 9 1 11-1 23-6 34 0 1-1 2-1 2-1 2-3 4-5 6-4 4-9 7-15 8l-38 4c-5 1-9 4-10 9l-3 31c0 0 0 0 0 1 0 6 5 12 12 12l159 0c13 0 24 9 26 21l0 275c0 15-12 27-26 27z m-29-274l-365 0 0 212 366 0 0-212z"/>
<glyph glyph-name="keychain-f" unicode="&#57351;" d="M178 400c-19 1-28-2-48-12 8-20 21-36 42-36l4 0c3 1 7 0 10-1 12-5 18-19 14-31-3-10-13-18-24-18l-8 0c-28 1-55 14-73 36-3 3-5 6-7 9 0 0-1 0-1-1-7-14-11-29-11-45-1-35 18-67 47-86 4-2 6-6 6-10l0-120c0-6 2-11 5-15l32-41c0 0 1-1 2-2 5-4 13-3 17 2l31 41c4 4 5 9 5 14l0 121c0 4 3 8 6 10 30 18 48 49 49 84 1 55-43 100-98 101z m268-250l-6 51c-1 5-3 10-7 14l-85 85c-3 3-4 7-3 11 4 20 3 40-4 59-19 51-77 77-128 58-2-1-3-2-3-3-1-3 0-5 3-6 8-3 15-6 22-10 60-33 82-108 49-168-3-4-4-5 0-8l84-84c4-4 9-6 14-7l51-6c1 0 2 0 3 0 6 1 11 7 10 14z m-277 166c1 0 5 0 6 0 4 0 7 2 9 4 4 6 3 13-2 17-1 0-3 1-5 1l-5 0c-7 0-15 1-22 4-35 12-52 50-39 85 0 1 1 2 1 3 0 0 0 0 0 1 1 1 1 2 2 3l0 1 2 3 1 1 2 3c1 2 2 4 4 6 0 0 1 0 1 1l2 2 2 1c0 1 1 2 2 2l2 2c0 0 1 1 1 1 1 1 2 1 3 2l1 1c2 1 3 1 4 2l2 1c1 0 2 1 3 1l2 1 3 1 1 1 4 1c0 0 1 0 1 0 2 0 3 1 5 1 19 3 38-2 52-14 1-1 3-2 4-1 5 1 10 2 14 2 1 1 2 1 3 2 2 1 2 4 0 6-7 8-16 14-26 19l-14 5c-46 8-71-11-80-18-1-1-2-3-3-4-2-1-3-3-5-4l-1-2c-1-1-2-2-3-3l-1-2c-1-2-3-3-4-5 0-1 0-1-1-2 0-2-1-3-2-4l-1-3-1-3c-1-1-1-1-2-3-1-1-1-3-2-5-1-5-3-10-3-16 0-2-1-4-1-6-2-49 35-90 84-92z"/>
<glyph glyph-name="ladies-f" unicode="&#57352;" d="M296 254c0 42 17 88 11 106-5 13-15 30-55 30-39 0-50-17-54-30-7-18 11-64 11-106 0-16-43-84-43-103 0-17 18-25 35-27 3 0 6-39 9-79 1-14 12-26 27-27l32 0c0 0 22-2 26 30l0 0c0 0 0 1 0 1 0 5 2 21 2 24 2 28 4 51 7 51 16 2 34 10 34 27 0 19-42 87-42 103z m-44 169c20 0 37 17 36 37 0 0 0 0 0 1 0 20-17 37-37 36-21 0-37-17-37-38 0-20 17-37 38-36z"/>
<glyph glyph-name="laptop-f" unicode="&#57353;" d="M493 165l-31 0c-3 0-5 2-5 5l0 142c0 0 0 7 0 14l0 48c0 17-14 31-31 31l-334 0c-17 0-30-13-31-30l0-205c0-3-2-5-5-5l-31 0c-6 0-10-4-10-10l0-13c0-15 12-27 27-27l434 0c15 0 27 12 27 27l0 13c0 6-4 10-10 10z m-77 5c0-3-2-5-5-5l-103 0c-2 0-5-2-5-5l0-6c0-6-4-10-10-10l-68 0c-6 0-11 4-11 10l0 6c0 3-2 5-5 5l-102 0c-3 0-6 2-6 5l0 180c0 9 7 15 16 15l284 0c9 0 15-6 15-15z"/>
<glyph glyph-name="launchrocket-f" unicode="&#57354;" d="M136 101c-1 2-4 3-7 1-9-4-18-8-26-11-1-1-3-1-4 0-3 1-5 4-4 7 4 8 8 17 12 26 1 3 1 5 0 7l-18 17c0 0 0 1-1 1-2 2-6 1-8-2-13-19-24-40-33-62 0 0-11-29-18-48-3-7 3-14 10-12 11 3 27 8 41 13 5 2 11 4 13 5 21 8 41 19 60 32 0 0 0 0 1 0 2 3 2 6 0 9l-18 17z m343 364c-3 10-14 17-24 14-48-14-142-49-216-123-19-19-36-38-53-59-4-5-10-9-17-9l-59-7c-4 0-8-2-11-5l-76-76c-2-2-2-4-2-6 1-3 5-6 8-5l75 21c5 1 10 0 13-3l3-3c2-2 2-5 1-7-3-6-5-11-7-15-2-5-1-11 3-15l50-50c4-4 10-5 15-3 4 2 9 4 15 7 2 1 5 1 7-1l3-3c3-4 4-8 3-13l-21-75c-1-2 0-5 2-6 2-3 6-3 9 0l76 76c3 3 5 7 6 11l6 58c0 7 4 13 9 18 21 16 40 34 59 53 74 74 109 167 123 216 1 3 1 7 0 10z"/>
<glyph glyph-name="library-f" unicode="&#57355;" d="M404 418c-3 8-13 10-20 7l-189-101c-38-19-68 19-44 36l26 18 79 54 50 34c0 1 9 6 21 13 8 13-1 22-1 22-10 10-25 1-25 1-2-1-25-18-25-18l-133-90 0 0-19-13c-20-15-20-33-20-59l0-259c0-34 56-69 95-49l191 99c10 6 16 7 16 18l0 280c0 3 0 5-2 7z m-58-139c0-6-3-11-8-14l-79-41c-2 0-4-1-6-1-6 0-11 5-11 12l0 36c0 6 3 11 8 13l79 42c2 0 4 1 5 1 7 0 12-5 12-12z"/>
<glyph glyph-name="lifebelt-f" unicode="&#57356;" d="M336 403c-5-6-3-15 4-20 7-5 14-10 20-16 8-8 15-18 21-27 1-1 1-2 2-3 6-6 15-6 20 0l45 44c5 5 5 13 1 19-8 10-16 21-26 30-7 7-15 14-23 20-5 5-13 4-18-1l-44-44c-1-1-2-1-2-2z m-55-291c-3 3-7 5-12 5-8-1-17-1-25 0-5 0-9-2-11-4l-62-62c-5-4-2-9 0-12 55-24 126-10 126-10l1 0c10 2 20 4 29 7 2 1 4 2 6 4 6 6 5 15 0 20z m-163 217c0 0 1 0 1-1 3-1 5 0 7 2 12 25 32 46 56 60 1 0 1 0 2 1 1 2 1 5 0 7l-53 52c-5 5-13 6-19 1-18-14-35-31-49-50-4-6-3-14 2-19z m364 4c-1 2-2 4-4 5-5 6-14 6-20 0l-52-52c-3-3-5-7-4-11 1-12 0-23-1-34-1-4 1-8 4-11l51-51 0 0c1-2 3-3 5-4 7-2 15 2 18 9 17 48 18 100 3 149z m-256 75c1-1 3-1 4-1 18 3 36 3 53 0 2 0 3 0 4 1l54 54c2 2 3 4 4 6 2 7-2 15-9 18-51 18-107 19-159 1-2-1-4-2-6-4-5-6-5-15 1-20l54-55z m173-226c-1 1-2 1-2 2-7 4-16 2-20-4-5-8-11-15-17-21-8-8-17-15-26-21-1 0-2-1-3-2-6-5-6-14 0-20l44-44c5-5 13-6 18-2 20 14 37 30 51 49l0 0c4 6 4 14-1 19l-44 44z m-288 58c-2 12-2 25-1 37 0 4-1 8-4 11l-52 52c-2 2-4 3-6 4-8 2-16-2-18-10-16-49-15-102 3-151l0 0c1-2 2-4 3-6 6-5 15-5 20 0l51 51c3 4 4 8 4 13z m80-115c2 2 1 5-2 7-25 12-46 32-60 56 0 1 0 1-1 1-2 2-5 2-6 0l-53-52c-5-5-5-13-1-19 6-8 13-15 20-23 10-9 20-18 31-26 6-4 14-3 18 2l54 53c0 0 0 1 0 1z"/>
<glyph glyph-name="lifesciencemicroscope-f" unicode="&#57357;" d="M455 241c0 58-32 102-61 133-3 2-5 6-5 10 0 4 2 8 5 10l10 11c10 9 10 25 0 34l-2 2 14 15c10 9 12 22 6 29-2 2-5 6-9 10-2 1-4 2-7 4-5 1-13 0-23-10l-14-15-1 1c-9 10-25 10-34 0l-80-79-61-62c-9-9-9-24 0-34l36-36c9-9 25-9 34 0l75 75c3 2 7 4 10 4 4 0 8-2 10-5 1 0 1 0 1 0 21-24 48-55 48-98 0-72-49-122-122-122-32 0-73 11-86 36l48 0c13 0 24 10 24 21 0 15 5 36-24 36l-178 0c-25 0-24-20-24-36 0-11 11-21 24-21l69 0c8-28 40-58 68-71 0 0-11-28-22-56l51-10 22 55c21-3 41-3 61 1l11-15 19-30c3-4 8-5 12-4 9 3 17 7 25 10 1 1 1 1 2 1 5 4 6 10 2 15l-26 37c57 30 92 89 92 154z"/>
<glyph glyph-name="lift-f" unicode="&#57358;" d="M247 349c6-6 16-6 23 0l47 48c7 6 5 11-4 11l-109 0c-9 0-11-5-5-11l48-48z m112-43l-201 0c-18 0-33-15-33-32l0-231c0-18 15-32 33-32l65 0c4 2 6 5 6 8 1 29 3 73 2 83-3 19-6 38-7 57-2 21 16 31 34 31 19 0 37-10 35-31-1-19-4-38-7-57-1-10 1-54 2-83 0-3 2-6 6-8 0 0 0 0 0 0l65 0c18 0 32 14 32 32l0 235c-2 16-15 28-32 28z m-101-98c-12 0-21 10-21 22 0 12 9 21 21 21 12 0 22-9 22-21 0-12-10-22-22-22z m-54 240l109 0c8 0 11 5 4 11l-48 48c-6 6-16 6-22 0l-48-48c-6-6-4-11 5-11z"/>
<glyph glyph-name="lighthouse-f" unicode="&#57359;" d="M438 479c-14 12-29 22-45 30l-48-22c2-6 3-11 4-17l89 9z m39-83l-7 31 0 0c-1 2-2 4-5 4l-109 11c0 0 0 0-1 0-3 0-5-2-5-5l0-6c0-2 0-4 0-5-1-3 1-5 4-6l116-30c1-1 2-1 3 0 3 0 4 3 4 6z m-251 24l84 0c6 0 11 5 11 10l0 30c0 23-18 41-41 41l-24 0c-23 0-41-18-41-41l0-30c0-5 5-10 11-10z m-37 10l0 7c0 0 0 1 0 1-1 3-3 5-6 4l-110-11c-2 0-4-2-4-4l-7-31c0-1 0-2 0-3 0-2 3-4 6-3l117 30c3 0 4 3 4 6 0 1 0 3 0 4z m5 57l-48 22c-16-8-32-18-46-30l89-9c1 6 3 11 5 17z m154-445l-2 26 0 0-26 298 1 0c6 0 10 4 10 10l0 7c0 6-4 11-10 11l-111 0c-6 0-11-5-11-11l0-7c0-6 5-10 11-10l1 0-24-337c0 0 0 0 0 0 0-6 5-11 10-11l62 0c4 0 8 0 12 0 0 0 0 0 0 0l70 0c5 0 8 4 8 9 0 6-1 11-1 11l0 4z"/>
<glyph glyph-name="link-f" unicode="&#57360;" d="M479 405l-5 7c-19 27-49 43-82 44-19 0-37-6-52-17l-68-48 0 0-1 0 0 0c-10-8-13-22-6-33 5-6 12-10 19-10 5 0 10 2 14 4l69 49c7 5 16 8 25 8 17 0 34-9 43-24l5-6c16-24 11-56-13-73l-108-77c-9-5-19-9-29-9-3 0-7 1-10 1-13 3-25 10-33 22l-5 6c-4 7-12 11-20 11-5 0-9-2-13-4-11-8-13-23-5-34l5-7c14-21 37-36 63-40 6-1 12-2 18-2 20 0 39 7 56 18l108 77c45 31 55 93 24 137z m-246-242c-5 0-10-2-14-5l-69-48c-7-5-16-8-25-8-17 0-33 9-43 23l-5 7c-16 24-11 56 13 73l108 76c9 7 19 10 29 10 4 0 7-1 10-1 14-3 26-10 34-22l4-6c5-7 12-11 20-11 5 0 9 2 13 4 11 8 13 23 5 34l-4 6c-15 22-38 37-64 41-6 1-11 2-17 2-20 0-40-7-56-18l-109-77c-31-22-47-60-40-98 0-2 2-9 3-13 2-7 22-61 75-74 8-2 16-3 24-3 19 0 37 6 52 17l68 48 0 0 1 0 0 0c10 8 13 22 6 33-4 6-11 10-19 10z"/>
<glyph glyph-name="loadbalancer-f" unicode="&#57361;" d="M474 317l-64 0c-18 0-34-15-34-34l0-65c0-18 16-34 34-34l64 0c19 0 35 16 35 34l0 65c0 19-16 34-35 34z m0 176l-64 0c-18 0-34-15-34-34l0-64c0-19 16-34 34-34l64 0c19 0 35 15 35 34l0 64c0 19-16 34-35 34z m0-353l-64 0c-18 0-34-16-34-34l0-65c0-18 16-34 34-34l64 0c19 0 35 16 35 34l0 65c0 18-16 34-35 34z m-196-4c-3 3-7 5-12 4-4 0-8-2-11-6l-6-7c-1-1-1-2 1-3l45-37-96 0c-3 0-5 3-5 6l0 138c0 3 2 6 5 6l96 0-45-37c-2-1-2-2-1-4l6-6c0-1 1-1 1-2 6-6 16-6 22 0 0 0 54 43 57 46 0 1 0 1 1 1 9 10 8 25-1 34l-57 46c0 1-1 2-2 2-7 5-16 3-21-4l-6-6c-1-2-1-3 1-4l45-36-96 0c-3 0-5 2-5 5l0 132c0 3 2 5 5 5l95 0-44-36c-2-1-2-3-1-4l6-6c0-1 1-2 1-2 6-6 16-7 22-1 0 0 54 44 57 47 5 4 8 10 7 17 1 7-2 13-7 17l-57 47c0 0-1 1-2 1-6 5-16 3-21-4l-6-6c-1-1-1-3 1-4l45-36-119 0c-6 0-11-5-11-11l0-156c0-3-2-5-5-5l-12 0 0 17c0 20-15 35-35 35l-68 0c-19 0-35-15-35-35l0-64c0-19 16-35 35-35l68 0c20 0 35 16 35 35l0 17 12 0c3 0 5-3 5-6l0-162c0-6 5-11 11-11l119 0-45-36c-2-2-2-3-1-4l6-7c3-3 7-6 11-6 5 0 9 1 13 4 0 0 53 44 56 47 1 0 1 0 1 1 9 9 9 24-1 33l-56 47z"/>
<glyph glyph-name="location-f" unicode="&#57362;" d="M398 429c-1 2-7 8-12 14l-2 0c-37 51-108 56-126 56-2 0-3 0-5 0-104-2-181-95-173-199 5-75 46-144 89-205 22-28 46-55 73-79 8-8 21-8 30 0 42 39 162 161 162 306 0 39-13 77-36 107z m-72-123c-6-26-27-47-53-53-38-9-76 15-85 53-9 38 14 76 52 85 12 3 23 3 34 0 38-9 61-47 52-85z"/>
<glyph glyph-name="locker-f" unicode="&#57363;" d="M482 264l-18 13c-2 1-3 2-5 2-12 8-26 11-41 10l-196 0c-16 39-52 65-94 66-57 2-104-43-106-100 0-3 0-5 0-8 4-30 20-57 43-74 2-2 6-5 8-6 5-3 10-6 16-8 54-20 113 8 133 61l18 0c7 1 13 4 18 9l4 6c1 0 1 1 2 1 4 4 11 3 14-1l10-12c5-5 13-6 18-1l4 3c6 4 10 7 16 7 5 0 10-3 16-7l4-3c6-4 14-4 20 0l6 5c6 5 17 5 26 0 1 0 6-2 6-3 4-3 8 0 12 3 8 6 15 11 24 0 3-2 7-2 10 0 9 7 26 23 33 30 0 1 0 1 1 1 1 2 0 5-2 6z m-379-40c0-10-7-18-14-18-7 0-17 7-20 16-10 21-10 45 0 67 3 8 13 16 20 16 7 0 13-8 14-18z"/>
<glyph glyph-name="lounge-f" unicode="&#57364;" d="M304 259c-79-40-177 15-56 171 45 58 3 78-45 74l-4 0c-16-2-55-9-76-36l0 0c-2-5-5-14-5-16-99-358 206-377 295-273 13 15-45 112-109 80z m81-230c-48 24-94 26-100 34 0 0 0 0 0 0l0 17c0 0 0 1 0 1 0 7-5 11-11 11-1 0-2 0-2 0l-21 0c0 0-1 0-2 0-1 0-2 0-2 0-6-1-10-7-9-12l0-17c0 0 0 0 0 0-6-8-52-10-100-34-20-10-7-34 13-27 36 14 74 21 112 21 9 0 19-1 28-2l0 1c28-3 55-9 81-19 20-8 34 16 13 26z"/>
<glyph glyph-name="malware-f" unicode="&#57365;" d="M297 319l-79 0c-13 0-24-10-24-24l0-37c0-8 4-16 12-20 2-2 4-4 4-7l0-25c0-6 5-12 12-12l65 0c7 0 12 6 12 12l0 23c0 3 2 6 6 7 9 3 15 12 15 22l0 37c0 14-10 24-23 24z m-51-110c0-2-2-3-4-3l-10 0c-2 0-4 1-4 3l0 18c0 2 2 4 4 4l10 0c2 0 4-2 4-4z m-15 42c-11 0-19 10-19 24 0 13 9 24 19 24 10 0 19-11 19-24 0-14-9-24-19-24z m50-42c0-2-2-3-4-3l-10 0c-2 0-4 1-4 3l0 18c0 2 2 4 4 4l10 0c2 0 4-2 4-4z m2 42c-10 0-19 10-19 24 0 13 9 24 19 24 11 0 19-11 19-24 0-14-8-24-19-24z m197-88l-30 0c-3 0-5 2-5 5l0 197c0 16-13 29-29 29l-1 0c-10 0-21 0-21 0l-300 0c-2 0-4 0-5-1-14-2-24-14-24-28l0-168 0 0 0-29c0-3-2-5-5-5l-30 0c-5 0-10-4-10-10l0-12c0-15 12-26 27-26l416 0c15 0 27 12 27 26l0 12c0 6-5 10-10 10z m-74 5c0-3-2-5-4-5l-99 0c-3 0-5-2-5-5l0-6c0-5-4-10-10-10l-66 0c-5 0-9 5-9 10l0 6c0 3-3 5-5 5l-99 0c-3 0-5 2-5 5l0 173c0 8 6 14 14 14l274 0c8 0 14-6 14-14z"/>
<glyph glyph-name="medus-f" unicode="&#57366;" d="M456 399c0 1-1 2-1 2-3 3-8 9-12 13-39 40-91 63-107 69-20 7-40 11-61 12-138 9-257-96-265-234 0 0 0-1 0-1 0-8 6-15 15-15l111 0c-10-76 11-152 59-212 6-8 19-6 26 0 7 7 7 19 0 26-20 25-35 54-43 86-5 15-7 31-8 47 0 8-1 17 0 25 0 4 0 8 1 12 0 2 0 4 0 6l1 4c-1-2-1-1 0 1 0 2 0 3 0 5l55 0c-10-76 11-152 59-212 6-8 19-6 26 0 7 7 7 19 0 26-20 25-35 54-44 86-4 15-6 31-7 47-1 8-1 17 0 25 0 4 0 8 0 12 1 2 1 4 1 6l1 4c-1-2-1-1 0 1 0 2 0 3 0 5l55 0c-11-76 11-152 59-212 6-8 19-6 25 0 7 7 7 19 0 26-20 25-34 54-43 86-4 15-7 31-7 47-1 8-1 17 0 25 0 4 0 8 0 12 1 2 1 4 1 6l1 4c-1-2-1-1 0 1 0 2 0 3 0 5l140 0c0 0 1 0 1 0 8 0 15 7 14 16-3 50-21 98-52 138z"/>
<glyph glyph-name="mobiledevicemanagement-f" unicode="&#57367;" d="M382 391l-262 0c-6 0-11-5-11-11l0-237c0-6 5-11 11-11l262 0c6 0 11 5 11 11l0 237c0 6-5 11-11 11z m-38-138c-1-2-2-4-4-4l-10-2c-2-7-4-13-7-20l7-7c2-2 2-4 1-6 0 0-2-3-4-7-3-3-6-6-6-6-1-2-3-2-5-1l-9 4c-5-5-12-9-18-13l2-10c0-2-1-4-3-5 0 0-3-1-8-3-4-1-8-2-8-2-2 0-4 1-5 3l-5 9c-3 0-7 0-10 0-4 0-8 0-11 1l-5-10c-1-2-3-3-5-2 0 0-5 1-9 2-3 1-7 3-7 3-2 1-3 3-3 5l2 10c-7 4-12 8-17 13l-1-1-9-5c-2 0-4 0-6 1 0 0-2 3-5 7-2 3-5 7-5 7-1 2 0 4 1 6l7 7 1 0c-3 7-6 14-7 21 0 0 0 0 0 0l-11 1c-2 1-3 3-4 5 0 0 0 3 0 8 0 4 0 8 0 8 1 2 2 4 4 4l11 2 0 0c1 7 4 14 7 20l-8 8c-1 1-1 3-1 5 0 0 3 4 5 8 2 3 5 6 5 6 1 1 3 2 5 1l9-5c6 5 12 9 18 13l-1 10c-1 2 0 4 2 5 0 0 5 2 8 3 4 2 8 2 8 2 2 1 5 0 6-2l4-10c4 1 7 1 11 1 4 0 7 0 11-1l5 10c1 2 3 3 5 2 0 0 4-1 8-2 4-1 8-3 8-3 2-1 3-3 3-5l-2-10c6-4 12-8 17-13l9 5c2 1 4 1 6-1 0 0 3-3 5-6 2-4 5-7 5-7 1-2 0-4-1-6l-7-7c3-7 5-14 7-22l10-1c2-1 3-2 4-4 0 0 0-5 0-9 0-4 0-8 0-8z m-80 47c-21 7-44-5-51-26-7-21 5-44 26-50 21-7 44 4 50 25 7 21-4 44-25 51z m118-194l-262 0c-6 0-11-5-11-11l0-43c0 0 0-3 0-6 2-15 14-26 29-26l229 0c15 3 26 16 26 32l0 43c0 6-5 11-11 11z m-132-66c-11 0-21 10-21 21 0 12 10 21 21 21 12 0 21-9 21-21 0-11-9-21-21-21z m111 464l-220 0c-17 0-32-14-32-32l0-43c0-6 5-11 11-11l262 0c6 0 11 5 11 11l0 43c0 18-14 32-32 32z m-111-65c-12 0-21 9-21 21 0 11 9 20 21 20 11 0 20-9 20-20 0-12-9-21-20-21z"/>
<glyph glyph-name="nominate-f" unicode="&#57368;" d="M455 205c-3 10-12 17-22 19-15 4-25-10-25-10-9-9-23 4-14 13 8 8 4 4 12 12 30 31-22 73-43 45l-8-8c-4-3-9-3-12 0-4 3-5 9-2 13l10 10c14 13 18 34 4 48-12 11-30 14-42 3-5-5-7-8-14-15-4-2-9-1-12 2-3 4-3 10 0 14 4 4 58 60 74 75 27 27 48 47 26 68-23 23-53-10-82-41-6-6-53-54-53-54l-51-52-7-6-23-23c-12 36-56 145-103 104-14-11-19-29-12-45 38-54 30-103 23-167-17-57 7-119 53-156l45-26c51-14 100 6 125 20 4 2 8 5 12 7 3 2 4 3 4 3l2 1c17 11 33 24 48 38 6 6 60 54 71 67 9 9 15 20 18 32 0 3-1 7-2 9z"/>
<glyph glyph-name="notememo-f" unicode="&#57369;" d="M358 439l-302 0c-15 0-27-11-30-24l0-310c0-17 14-30 30-30l27 0c2 0 3 0 5 0l270 0c17 0 30 14 30 31l0 302c0 17-13 31-30 31z m-174-196l-93 0c-7 0-13 7-13 14 0 8 6 14 13 14l93 0c8 0 14-6 14-14 0-7-6-14-14-14z m22 58l-115 0c-7 0-13 6-13 14 0 7 6 13 13 13l115 0c7 0 14-6 14-13 0-8-7-14-14-14z m49 57l-164 0c-7 0-13 6-13 14 0 7 6 13 13 13l164 0c8 0 14-6 14-13 0-8-6-14-14-14z m215 31l-24 0c-10 0-18-8-18-18l0-195c0-3 1-6 2-9l24-41c1-1 1-1 2-2 3-2 7-1 9 2l22 41c1 3 2 6 2 9l0 195c0 10-9 18-19 18z"/>
<glyph glyph-name="onlinewifi-f" unicode="&#57370;" d="M156 239c-6-5-8-12-5-15l24-25c4-3 10-3 13 1 41 35 102 35 143-1 4-3 9-3 13 0l24 25c3 3 1 10-4 15-60 51-149 51-208 0z m273 84c-97 87-243 87-340 0-7-5-8-14-4-18l20-21c5-4 13-3 17 1 78 70 196 70 274 0 5-5 12-5 17-1l20 20c5 5 3 14-4 19z m70 83c-135 125-344 125-480 0-7-7-8-17-3-22l17-17c6-5 15-5 20 1 117 107 296 107 413 0 5-6 14-6 20-1l17 17c5 5 4 15-4 22z m-239-235c-39 0-71-32-71-72 0-40 32-72 71-72 40 0 72 32 72 72 0 40-32 72-72 72z"/>
<glyph glyph-name="orbit-f" unicode="&#57371;" d="M252 329c-38 0-69-31-69-70 0-38 31-69 69-69 38 0 69 31 69 70 0 38-31 69-69 69z m83 7c19 0 35 15 35 34 0 19-16 35-35 35-19 0-35-16-35-35 0-19 16-34 35-34z m117 47c-68 111-213 145-324 77-110-69-144-214-76-324 0-1 1-1 1-2 2-2 6-1 8 1 3 4 7 8 11 11 3 2 3 5 2 7-23 38-33 83-29 127 9 95 98 181 193 187 28 2 55-2 82-11 108-38 165-156 127-265-38-108-156-165-264-127-2 1-5-1-7-3-2-5-5-9-8-14 0 0-1-1-1-1-1-3 0-6 3-7 63-23 132-19 191 12 2 1 6 3 10 6 35 21 64 50 84 84 0 1 1 1 1 1 2 4 4 8 6 12 13 26 22 55 24 85 5 51-7 101-34 144z m-182 28c-6 1-12 1-18 1-84 0-152-68-152-152 0-85 68-153 152-153 84 0 152 69 152 153 0 20-4 40-12 59 0 1-1 1-1 2-2 2-6 2-8 0-4-4-8-7-12-10-2-2-3-4-2-7 5-14 8-29 8-44 0-69-56-125-125-125-69 0-124 56-124 125 0 68 55 124 124 124 4 0 7 0 10 0 3 0 6 1 6 4 1 5 3 10 6 15 0 0 0 1 1 2 0 3-2 6-5 6z m-156-286c-20 0-35-16-35-35 0-19 15-34 35-34 19 0 34 15 34 34 0 19-15 35-34 35z"/>
<glyph glyph-name="paragraph-f" unicode="&#57372;" d="M415 258c0 97-164 104-164 145 0 12 11 18 23 18 23 0 38-10 51-17 15-8 30-15 44 6l22 30c0 0 0 1 0 1 3 3 2 9-2 11-36 29-74 39-121 39-83 0-130-33-130-87 0-23 6-42 21-59-42-22-54-49-54-82 0-97 165-105 165-145 0-12-11-18-24-18-23 0-38 10-50 16-16 9-31 15-45-5l-22-31c0 0 0 0 0 0-2-4-1-9 2-12 8-6 16-12 25-16 13-7 52-26 101-23 4 0 9 1 14 1 5 0 10 1 15 2 62 7 97 39 97 84 0 24-6 42-22 60 42 22 54 48 54 82z m-123-38c-8 4-17 8-26 12-20 8-62 23-62 43 0 9 7 19 23 25 8-4 16-8 26-12 19-8 62-23 62-43 0-9-7-18-23-25z"/>
<glyph glyph-name="pedestrian-f" unicode="&#57373;" d="M252 425l1 0c41-6 52 53 12 63-42 7-54-53-13-63z m124-386l0 1c-16 40-40 102-40 102 0 0-9 22-11 29-2 9-3 18-2 28l-2 38c-1 4-1 8 0 12 1 5 3 10 6 14 6 13 13 26 19 39 1 2 2 4 3 7 2 8 0 17-5 24-6 9-24 41-33 53-6 8-19 18-43 11-27-7-24-45-24-53l5-56 1-11c0 0 0-20-7-33-7-13-31-50-31-50-3-5-6-10-7-16-2-5-3-11-4-17 0 0-17-58-27-93-1-4-4-7-7-9-1 0-7-2-8-2-16-5-28 3-40-4-12-14 33-27 46-30 1-1 14-5 19-6 7-2 15 1 18 8 1 2 1 5 2 7 0 2 3 11 3 11l25 89c1 7 3 14 6 20 2 4 4 7 6 10 0 0 13 16 18 22 8 10 15 20 18-17 1-8 46-103 62-136-2-1-4-2-6-3-5-3-10-4-16-4-5-1-11-2-16-4-3-1-5-2-6-5-1-4 1-7 4-9 3-1 7-2 10-2 7 0 14 0 21 0 7 0 13 0 20 0 0 0 0 0 0-1l22 0c0 0 12 5 1 36z"/>
<glyph glyph-name="phishing-f" unicode="&#57374;" d="M373 148l-115-27c-7-2-15-1-23 2l-2 1-1 0c-8 4-13 10-17 17l-55 103c-8 14-19 14-26-1l-41-92c-7-14-1-31 12-38l51-23 12-6 94-42c0 0 19-8 23-10 1-1 2-2 3-2l22-10c13-6 28-1 34 12l8 17c1 2 1 3 2 5 1 2 3 6 5 10l11 22 19 42c6 15-1 24-16 20z m37 45c-1 4-2 7-8 9l-79 36c0 0 0 0-1 1-2 1-2 4 0 6 33 44 52 111 52 158l0 2c0 2 1 3 2 4l1 1c9 5 15 14 18 24 6 21-7 43-29 49-21 6-43-7-49-28-6-22 7-44 28-50 1 0 2 0 3-1 3 0 2 0 2-3l0-3c-2-44-21-107-52-145-2-1-4-2-6-1l-33 15c-3 1-5 4-5 7-1 5-2 12-3 19l-2 10c0 3-1 5-2 7l-14 26c-1 1-2 2-4 2-3 0-5-2-5-5 0 0 2-29 4-44 0-1 0-2-1-2-1-3-4-4-6-3l-40 18c-4 3-8 3-12 0-3-2-5-6-2-14l61-116c3-5 6-10 10-14l0 0c1-2 2-3 3-4l2-1c1-1 2-1 3-1 1-1 2-1 3-1 0-1 1-1 2-1 2 0 3 0 5 0 6 0 12 0 17 2l128 31c8 2 9 7 9 11z m-71 251c0 9 7 17 17 17 1 0 3 0 4-1 4-1 8-4 10-8 2-3 3-8 2-12-1-5-4-8-8-10-2-2-5-3-8-3-9 0-17 8-17 17z m-72-203c3 1 6 1 8 1 3 0 6 0 8-1 1-1 1-1 1-1 1-1 1-3 0-3-5-5-9-7-11-6-2 0-4 2-7 6 0 0 0 0 0 0-1 2 0 3 1 4z m31-30c-2-7-7-13-14-15-13-5-26 1-31 14 0 0 0 1 0 2 1 1 3 1 4 0 3-2 6-4 10-4 2-1 5-1 7-1 7 0 14 3 20 7 1 1 2 1 3 1 1-1 2-3 1-4z"/>
<glyph glyph-name="phone-f" unicode="&#57375;" d="M462 76c-2 5-6 9-9 14-21 26-41 53-61 80-5 6-8 14-16 16-12 3-24-8-31-14-7-5-33-24-33-24-12-8-28 4-38 12-23 19-96 112-109 139-6 12-13 30-2 40 0 0 26 22 31 26 8 6 22 15 21 27 0 9-7 13-11 19-22 27-43 53-64 79-3 4-7 9-11 12-10 7-18 0-25-5-14-11-28-23-41-35-11-10-18-23-20-38-5-47 9-91 23-126 9-24 38-79 77-129 18-23 38-45 60-66l0 0c47-53 129-84 136-87 9-2 18-4 27-5 14-2 29 1 41 10 15 9 30 20 45 32 5 5 14 12 10 23z"/>
<glyph glyph-name="photo-f" unicode="&#57376;" d="M461 378l-67 0c-11 0-21 10-21 21l0 21c0 11-9 21-21 21l-213 0c-12 0-21-10-21-21l0-21c0-11-10-21-21-21l-73 0c-10 0-19-8-20-18l0-280c0-12 9-21 21-21l436 0c1 0 3 0 4 0 0 0 1 0 1 1 1 0 2 0 3 0 7 4 13 11 13 20l0 279c-1 11-10 19-21 19z m-218-269c-63 0-113 51-113 114 0 62 50 113 113 113 62 0 113-51 113-113 0-63-51-113-113-114z m0 185c-39 0-71-32-71-71 0-39 32-71 71-71l0 0c39 0 70 32 70 71 0 39-31 70-70 70z"/>
<glyph glyph-name="plates-f" unicode="&#57377;" d="M23 351c22-2 64-9 64-9 0 0 26-35 47-33l104 12 105 11c20 3 39 44 39 44 0 0 39 15 60 22 8 3 14 10 14 18 1 9-4 18-13 17l-214-24-215-24c-15-2-13-32 9-34z m458-204c-1 13-17 15-22 15l-441 0c-16 0-16-30 5-34l62-16c0 0 23-39 43-39l211 0c21 0 43 39 43 39l81 13 1 0c22 5 17 23 17 23z m-247 134l-216-1c-15 0-16-30 6-34 21-4 62-15 62-15 0 0 23-39 43-39l106 0 105 0c20 0 43 39 43 39 0 0 41 12 62 16 9 2 15 8 16 17 2 9-2 18-11 18l-216-1z"/>
<glyph glyph-name="play-f" unicode="&#57378;" d="M249 496c-134 0-243-109-243-244 0-135 109-244 243-244 135 0 244 109 244 244 0 135-109 244-244 244z m166-247c0-1 0-2 0-3 0-1 0-3 0-5 0-1 0-2 0-3-1-2-1-3-1-5 0-1 0-2 0-3-1-2-1-3-1-5 0-1 0-2-1-3 0-2 0-3-1-5 0-1 0-2 0-4-1-1-1-2-1-3-1-2-1-4-2-5 0-1 0-2 0-3-1-2-2-4-3-7 0 0 0 0 0 0-23-63-84-109-156-109-80 0-146 57-162 132 0 1 0 1 0 1-1 3-1 5-2 8 0 0 0 1 0 2 0 4-1 7-1 11 0 2 0 4 0 5 0 2 0 4 0 5 0 4 0 7 0 11 0 0 0 0 0 0 0 2 0 4 0 7 0 1 0 2 1 2 0 2 0 3 0 5 0 1 1 3 1 5 0 0 0 0 0 1 8 44 33 85 74 111 78 49 180 26 229-51 14-21 22-44 25-67 0 0 0 0 0-1 0-3 1-6 1-9 0 0 0 0 0-1 0-2 0-4 0-6 0-1 0-2 0-2 0-2 0-4 0-6z m-73 21l-123 75c-11 6-25 3-31-8-2-4-3-7-3-12l0-149c0-12 10-22 22-22 0 0 0 0 0 0 4 0 8 1 12 3l123 75c11 6 14 20 8 30-2 4-5 6-8 8z"/>
<glyph glyph-name="powersupply-f" unicode="&#57379;" d="M141 211c11 0 20 9 20 19l0 28c90 21 91 126 91 126 0 2 1 5 0 8 0 17-15 31-32 30l-20 0c-4 0-7 3-7 7l0 52c0 11-9 19-20 20-11 0-21-9-21-20l0-52c0-4-3-7-7-7l-35 0c-3 0-6 3-6 7l0 52c-1 11-9 19-20 20-11 0-21-9-22-20l0-52c0-4-3-7-7-7l-19 0c-3 0-5 0-8-1-17-3-28-20-24-37 0 0 0-105 90-126l0-28 0 0c0-10 9-19 20-19l28 0z m340 143l-1 0c0 0 0 0 0 0-4 0-9 0-13-1-118-19-119-135-119-181 0-75-51-109-99-109-46 0-92 30-97 96-1 7-7 12-14 12l-20 0c0 0 0 0-1 0-7-1-13-7-12-15 6-92 76-140 144-140 73 0 146 54 146 156 0 62 7 118 69 133 5 2 11 3 17 4 12 0 22 10 22 23 0 12-10 22-22 22z"/>
<glyph glyph-name="printer-f" unicode="&#57380;" d="M151 356l217 0c6 0 11 5 11 11l0 93c0 18-15 33-33 33l-173 0c-18 0-32-15-32-33l0-93c0-6 4-11 10-11z m285-27l-353 0c-19 0-35-12-35-26l0-173c0 0 0-1 0-1l0-6c0-19 16-35 35-35l25 0c0 0 1 0 1 0l5 0 0 46c0 20 17 37 37 37l217 0c20 0 37-17 37-37l0-46 30 0c20 0 36 16 36 35l0 182c-2 13-17 24-35 24z m-68-185l-217 0c-6 0-11-4-11-10l0-93c0-18 15-33 33-33l173 0c18 0 33 15 33 33l-1 93c0 6-4 10-10 10z m-38-104l-145 0c-7 0-13 6-13 13 0 7 6 13 13 13l145 0c7 0 13-6 13-13 0-7-6-13-13-13z m0 53l-145 0c-7 0-13 6-13 13 0 7 6 13 13 13l145 0c7 0 13-6 13-13 0-7-6-13-13-13z"/>
<glyph glyph-name="privacydataprotection-f" unicode="&#57381;" d="M320 232c-10 17-26 29-46 36-4 2-9 1-13-1-8-5-18-7-27-7-10 0-19 3-27 7-5 2-9 3-14 1-28-10-49-30-53-61-1-8-1-18 0-30 0-7 4-14 10-19 23-17 52-27 84-27l0 0c15 0 28 2 42 6 0 1-1 2-1 3 0 38 18 71 45 92z m-43 88c32 83-90 100-91 27 1-61 63-97 91-27z m9-228c-10-7-20-12-30-17-5-2-14-5-19-7-3-1-7-1-10 0-6 2-11 4-16 6-81 36-135 117-135 208l0 87c0 4 4 8 9 9 58 14 101 38 134 60 3 2 5 4 8 5 3 3 8 3 12 0 3-2 6-4 8-6 35-23 77-46 134-59 4-1 8-5 8-10l0-87c0-9-1-17-2-25l3 0c17 0 33-4 48-11 1 11 2 24 2 35l0 35c0 2 0 7 0 12-1 18-3 56-5 81-1 8-6 13-13 14-6 0-12 1-16 2l0 0c-8 2-16 3-18 4-54 14-93 37-127 61l-21 14c-5 4-12 4-17 0l-21-14c-31-23-75-50-137-63l-28-6c-7-2-12-8-12-15l0-123c0-121 77-227 191-265l11-3c3-1 7-1 10 0l11 3c25 9 49 20 70 35-14 11-25 24-32 40z m145 122c-12 7-26 12-42 12-3 0-5-1-8-1-21-2-40-12-54-27-11-12-20-29-22-47 0-4 0-7 0-11 0-11 2-21 6-31 7-16 18-29 33-39 13-9 29-14 46-14 46 0 84 38 84 85 0 31-18 59-43 73z m0-54l-42-63c-3-5-8-6-13-5-3 1-5 2-6 4l-19 31c-1 2-2 4-2 6 0 4 8 10 8 10 0 0 1 1 1 1 1 0 2-1 2-1l20-33 33 53 9 13c0 0 1 1 2 1 0 0 1 0 1-1 0 0 7-5 7-10 1-2 0-4-1-6z"/>
<glyph glyph-name="publicannouncement-f" unicode="&#57382;" d="M373 358c5-4 12-4 16 0l54 48c4 5 5 12 1 16-5 5-12 5-16 1l-54-49c-4-4-5-11-1-15 0 0 0 0 0-1z m-48 91c-2 14-14 18-25 9l-150-130c-4-6-11-9-18-9l-87-17c-13-3-22-16-20-30l15-71c0 0 0 0 0 0 2-14 16-23 29-20 8 1 16-4 18-12l18-92c14-53 58-35 58-35l0 0 3 2c13 6 21 21 18 36l-22 111c-3 7 0 10 8 7l182-63c20-7 34 5 30 26l-57 288z m152-217l-72 12c-6 1-12-3-13-10-1-6 4-12 10-13l71-11c1 0 2 0 2 0 6 0 11 4 11 10l0 0c1 6-3 11-9 12z m20 88c-1 7-7 11-13 10l-96-19c-5-1-9-6-9-11 0-6 5-11 11-11 1 0 1 0 2 0l96 18 0 0c6 2 10 7 9 13z"/>
<glyph glyph-name="punch-f" unicode="&#57383;" d="M305 181c-1 4-5 6-8 6-3 0-5 0-8 0-4 1-8 2-11 4-4 2-8 1-11-1-3-4-8-7-13-9l-3-2-1 0c-4-1-8-2-13-2-6 0-13 2-19 5-3 1-7 1-10-2-7-6-15-10-25-12 0 0-1 0-1 0-2-1-3-4-2-6 4-9 13-15 23-15l78 0c14 0 25 11 25 24l0 3c0 2 0 5-1 7z m55 171c-8 1-16-1-22-7-3-3-6-5-11-5l-1 0c-4 0-8 2-11 4 0 1-1 1-1 1-10 10-26 9-36-1-2-2-6-4-10-4l-2 0c-4 0-8 2-11 4 0 1 0 1 0 1-11 10-26 9-36-1-3-2-7-4-11-4l-1 0c-4 0-8 2-11 5-6 6-14 8-22 7-13-2-22-13-22-26l0-113c0-12 9-23 20-26 9-1 17 1 23 7 2 2 3 4 3 7l0 88c0 1 0 1 0 2 1 5 6 8 11 8 4-1 8-5 7-10l0-79c0-2 1-4 3-6 7-8 18-10 28-6 2 1 5 3 7 5 2 1 3 4 3 6l0 80c0 1 0 1 0 2 1 5 6 8 11 7 5 0 8-5 8-9l0-69c0-2 1-4 2-6 4-4 9-7 14-8 8-2 16 1 22 7 2 1 3 4 3 6l0 70c0 1 0 1 0 2 1 5 6 8 11 7 4-1 8-5 7-9l0-60c0-3 1-5 3-6 6-7 15-9 23-8 12 3 21 14 20 26l1 85c-1 12-9 23-22 26z m-241-131c-3 7-11 11-18 8l-41-14c-7-3-11-10-9-17 1-7 7-11 13-11 2 0 4 0 5 1l41 15c7 2 11 9 10 15 0 1-1 2-1 3z m-9 140l-41 15c-1 0-2 1-3 1-7 1-15-4-16-12-1-7 3-13 10-16l41-15c1 0 3-1 4-1 7 0 13 4 15 11l-1 0c2 7-2 14-9 17z m-22-93c8 0 14 7 14 15-1 7-7 13-15 13l-43 0c-8 0-14-6-15-13 0-1 0-1 0-1 0-8 7-14 14-14l45 0c0 0 0 0 0 0z m384-53l-41 14c-7 3-15-1-18-8 0-1 0-2-1-3 0-6 3-13 10-15l41-15c2-1 3-1 5-1 6 0 12 4 13 11 2 7-2 14-9 17z m-60 129c2-7 8-11 14-11 2 0 4 1 5 1l41 15c7 3 11 9 10 16-1 8-9 13-16 12-1 0-2-1-3-1l-41-15c-7-3-11-10-9-17l-1 0z m91-61c-1 7-7 13-15 13l-43 0c-8 0-14-6-15-13 0-8 6-15 14-15 0 0 0 0 0 0l45 0c7 0 14 6 14 14 0 0 0 0 0 1z"/>
<glyph glyph-name="puzzle-f" unicode="&#57384;" d="M265 226c12-3 24 1 32 11 3 4 5 8 6 13 4 17-6 34-23 38-5 2-10 2-15 0-7-1-14 0-19 5-6 4-9 10-9 17l0 37c0 12-10 22-22 22l-37 0c-7 0-13 3-17 9-5 5-6 12-4 19 1 5 1 10 0 15-4 13-16 23-30 23-18 1-33-13-33-31 0-2 0-5 0-7 2-7 1-14-4-19-4-6-10-9-17-9l-37 0c-12 0-22-10-22-22l0-179c0-12 10-23 22-23l37 0c7 0 13-3 17-8 5-5 6-13 5-19-2-5-2-10 0-15 3-13 15-22 29-23 17-1 32 12 33 30 0 3 0 5-1 8 0 2 0 3 0 5 0 13 10 23 22 22l37 0c12 0 22 11 22 23l0 37 0-1c0 2 1 4 1 6 3 12 15 19 27 16z m212 159l-44 0c-1 0-1 0-2 0-3-1-5-5-4-8 2-7 2-15 0-22 0-4-1-8-3-13-10-24-38-37-63-27-24 10-37 38-27 62 0 1 0 1 0 2 0 3-3 6-6 6l-37 0c-21 0-38-17-38-38l0-37c0 0 0-1 0-2 1-3 4-5 8-4 8 2 17 2 25 0 25-7 41-34 33-60-7-25-33-41-59-33 0 0-1 0-1 0-4 0-7-3-7-7l0-36c0-22 18-39 39-39l37 0c0 0 1 0 1 1 4 0 6 4 5 8-1 3-2 7-2 11 1 27 22 48 49 48 26 0 47-22 47-48 0-4 0-8-1-12 0 0 0-1 0-1 0-4 3-7 6-7l37 0c21 0 38 18 38 39l0 114c0 0 0 8 0 17l0 52c0 18-14 33-31 34z"/>
<glyph glyph-name="pwd-f" unicode="&#57385;" d="M215 433c20 0 37 17 37 37 0 21-17 38-37 38-20 0-37-17-37-38 0-20 17-37 37-37z m259-341c-27-2-48 6-48 6-1 2-3 3-4 5-8 8-19 19-23 25l-2 3c-10 14-29 41-40 57-7 10-17 17-28 19-10 1-51 8-63 11-3 0-5 1-6 3-8 14-20 26-33 35l-2 1c-1 1-1 3-1 5 0 3 10 73 10 73 4 29 2 58-24 68-6 3-27 9-57-8l-56-35c-19-12-36-32-23-61l15-32c1-3 1-5-2-7-2-1-3-2-6-4-36-24-56-65-56-108 0-71 58-129 129-129 71 0 130 58 130 129 0 3 0 7 4 7l22 0c10 0 19-5 26-13 0 0 37-41 56-62 2-2 4-6 5-10 4-7 11-11 19-9 20 4 50 12 50 12 20 6 20 15 20 15-3 6-12 4-12 4z m-363 232l26 17c3 2 6 1 6-2 0 0-2-57-3-60 0-2-2-3-3-3l-9-1c-1 0-3 1-4 2-4 8-15 29-17 35l0 0c-2 5 0 10 4 12z m43-266c-50 0-90 40-90 90 0 50 40 90 90 90 50 0 90-41 90-90 0-50-40-90-90-90z"/>
<glyph glyph-name="reception-f" unicode="&#57386;" d="M20 140l248 0c5 0 10 4 10 9l0 3c0 54-34 90-78 106-6 2-14 1-20-2-11-7-24-11-38-11-14 0-27 4-39 11-6 3-12 4-18 2-40-14-71-44-75-88 0-6 0-12 0-20 0-6 4-10 10-10z m181 192c45 120-124 144-127 39 3-88 88-140 127-39z m281-221l-466 0c-9 0-16-7-16-16l0-21c0-9 7-16 16-16l428 0c0 0 3 0 6 0l30 0c9 0 16 7 16 15l0 28c-1 6-8 10-14 10z m-105 29l96 0c0 0 1 0 1 0 3 0 5 2 4 5-2 22-17 40-38 46-3 1-4 3-4 5 0 3 2 5 5 5 3 0 5 1 4 4l0 3c0 3-2 5-5 5l-31 0c-2 0-5-2-5-5l0-4c1-2 2-2 5-2 3 0 5-3 5-6 0-2-2-4-4-5-21-6-36-24-39-46 0 0 0 0 0 0 0-3 3-5 6-5z"/>
<glyph glyph-name="refrigirator-f" unicode="&#57387;" d="M386 499l-247 0c-10 0-17-8-17-17l0-127c0-10 7-17 17-17l247 0c8 0 15 5 16 13l0 135c-1 7-8 13-16 13z m-193-115c0-8-6-15-14-15-8 0-14 7-14 15l0 64c0 8 6 14 14 14 8 0 14-6 14-14z m193-82l-247 0c-10 0-17-8-17-17l0-265c0-9 6-16 14-17l247 0c11 0 20 9 20 19l0 266c-2 8-9 14-17 14z m-193-208c0-8-6-14-14-14-8 0-14 6-14 14l0 154c0 8 6 15 14 15 8 0 14-7 14-15z"/>
<glyph glyph-name="reportanalytics-f" unicode="&#57388;" d="M446 459c0 1 0 3 0 4-3 17-17 29-35 29l-298 0c-20 0-36-16-36-35l0-411c0 0 0-1 0-1 2-19 18-35 38-35l38 0c1 0 2 0 2 0l256 0c2 0 4 1 6 1 17 3 30 19 30 37l0 16c-1 77-1 373 0 395z m-321-112c5 4 12 6 18 4 3 0 6 1 8 3l22 22c2 2 3 5 3 8-1 1-1 3-1 4 0 9 4 17 11 22 12 9 28 7 37-5 5-6 7-13 6-20 0-3 1-7 3-9l25-23c2-2 5-3 8-2 2 0 5 1 7 1 1 0 2 0 3 0 2-1 5 0 7 2l63 65c2 2 3 5 3 8-3 15 6 29 20 33 2 0 4 0 6 0 15 0 27-12 28-27 0-7-4-14-9-19-5-6-14-9-22-8-3 0-6-1-8-3l-62-63c-3-3-3-6-3-9 1-2 1-4 1-6 0-15-12-27-27-27-6 0-12 2-17 6-9 9-11 16-10 23 0 3-1 6-3 8l-26 25c-2 2-5 2-8 2-2 0-4-1-6-1-1 0-3 1-4 1-3 0-6-1-8-3l-22-22c-2-2-3-5-3-8 1-6 0-13-4-18-4-8-12-12-20-13-2 0-3 0-4 0-15 1-27 14-26 29 1 9 6 16 14 21z m277-280l-278 0c-8 0-15 7-15 15 0 8 7 15 15 15l278 0c8 0 15-7 15-15 0-8-7-15-15-15z m0 77l-278 0c-8 0-15 6-15 14 0 8 7 15 15 15l278 0c8 0 15-7 15-15 0-8-7-14-15-14z m0 76l-278 0c-8 0-15 7-15 15 0 8 7 14 15 14l278 0c8 0 15-6 15-14 0-8-7-15-15-15z"/>
<glyph glyph-name="restaurant-f" unicode="&#57389;" d="M410 289c0 130-50 209-76 209-21 0-23-18-23-37l0-398c0-39 55-17 54 10-1 26-6 123-6 130l0 0c0 40 51 14 51 86z m-172 145c-8 0-14-7-14-16l0-144c0-9-6-17-13-17-7 0-13 8-13 17l0 144c0 1 0 2 0 3-1 8-8 14-16 13-8-1-14-8-13-16l0-144c0-9-6-17-14-17-7 0-13 8-13 17l0 144c0 9-6 16-13 16-9-1-15-8-15-16 0 0-5-118-5-171 0-38 45-47 45-66 0-4-1-79-2-119 1-9 0-17-1-26 0 0 0 0 0 0l0 0c0-17 14-31 31-31 16 0 29 11 31 27l0 0c0 14 1 37 1 45-1 41-2 100-2 104 0 19 46 28 46 66 0 53-6 171-6 171 0 9-7 16-14 16z"/>
<glyph glyph-name="saletaglabel-f" unicode="&#57390;" d="M482 462c-2 15-16 26-30 24l-170-23c-14-2-27-8-37-19l-206-205c-11-12-12-29-4-41 1-2 3-4 4-5l98-98c4-3 18-17 20-19 0-1 1-2 1-2l36-36c13-13 33-13 46 0l3 3c0 0 1 1 2 2 0 0 1 1 2 2l198 198c10 11 16 24 18 38l19 175c0 2 0 4 0 6z m-91-103c-17 0-31 13-31 30 0 17 14 31 31 31 17 0 31-14 31-31 0-17-14-30-31-30z"/>
</font>
</defs>
</svg>
